# This file uses centimeters as units for non-parametric coordinates.

v -400.000000 -100.000000 25.000000
v -108.793381 -100.000000 25.000000
v -400.000000 100.000000 25.000000
v -108.793381 100.000000 25.000000
v -400.000000 100.000000 -25.000000
v -108.793381 100.000000 -25.000000
v -400.000000 -100.000000 -25.000000
v -108.793381 -100.000000 -25.000000
v 108.793335 -100.000000 25.000000
v 400.000000 -100.000000 25.000000
v 108.793335 100.000000 25.000000
v 400.000000 100.000000 25.000000
v 108.793335 100.000000 -25.000000
v 400.000000 100.000000 -25.000000
v 108.793335 -100.000000 -25.000000
v 400.000000 -100.000000 -25.000000
vt 1.000000 0.500000
vt 0.651728 0.500000
vt 0.651728 0.550056
vt 1.000000 0.550056
vt 0.589537 0.500000
vt 0.651728 0.500000
vt 0.651728 0.251237
vt 0.589537 0.251237
vt 1.000000 0.500000
vt 1.000000 0.251238
vt 0.651728 0.251238
vt 0.651728 0.500000
vt 0.000000 0.251238
vt 0.349736 0.251238
vt 0.349736 0.201182
vt 0.000000 0.201182
vt 0.349736 0.751237
vt 0.349736 1.000000
vt 0.000000 1.000000
vt 0.000000 0.751237
vt 0.349736 0.751237
vt 0.411926 0.751237
vt 0.411926 1.000000
vt 0.349736 1.000000
vt 0.349736 0.500000
vt 0.000000 0.500000
vt 0.000000 0.550056
vt 0.349736 0.550056
vt 0.651728 1.000000
vt 0.589537 1.000000
vt 0.589537 0.751238
vt 0.651728 0.751238
vt 0.349736 0.500000
vt 0.349736 0.251238
vt 0.000000 0.251238
vt 0.000000 0.500000
vt 0.651728 0.251238
vt 1.000000 0.251238
vt 1.000000 0.201182
vt 0.651728 0.201182
vt 1.000000 0.751238
vt 1.000000 1.000000
vt 0.651728 1.000000
vt 0.651728 0.751238
vt 0.411926 0.251237
vt 0.349736 0.251237
vt 0.349736 0.500000
vt 0.411926 0.500000
vn 0.000000 1.000000 0.000000
vn 0.000000 1.000000 0.000000
vn 0.000000 1.000000 0.000000
vn 0.000000 1.000000 0.000000
vn -1.000000 0.000000 0.000000
vn -1.000000 0.000000 0.000000
vn -1.000000 0.000000 0.000000
vn -1.000000 0.000000 0.000000
vn 0.000000 0.000000 -1.000000
vn 0.000000 0.000000 -1.000000
vn 0.000000 0.000000 -1.000000
vn 0.000000 0.000000 -1.000000
vn 0.000000 -1.000000 0.000000
vn 0.000000 -1.000000 0.000000
vn 0.000000 -1.000000 0.000000
vn 0.000000 -1.000000 0.000000
vn 0.000000 0.000000 1.000000
vn 0.000000 0.000000 1.000000
vn 0.000000 0.000000 1.000000
vn 0.000000 0.000000 1.000000
vn 1.000000 0.000000 0.000000
vn 1.000000 0.000000 0.000000
vn 1.000000 0.000000 0.000000
vn 1.000000 0.000000 0.000000
vn 0.000000 1.000000 0.000000
vn 0.000000 1.000000 0.000000
vn 0.000000 1.000000 0.000000
vn 0.000000 1.000000 0.000000
vn -1.000000 0.000000 0.000000
vn -1.000000 0.000000 0.000000
vn -1.000000 0.000000 0.000000
vn -1.000000 0.000000 0.000000
vn 0.000000 0.000000 -1.000000
vn 0.000000 0.000000 -1.000000
vn 0.000000 0.000000 -1.000000
vn 0.000000 0.000000 -1.000000
vn 0.000000 -1.000000 0.000000
vn 0.000000 -1.000000 0.000000
vn 0.000000 -1.000000 0.000000
vn 0.000000 -1.000000 0.000000
vn 0.000000 0.000000 1.000000
vn 0.000000 0.000000 1.000000
vn 0.000000 0.000000 1.000000
vn 0.000000 0.000000 1.000000
vn 1.000000 0.000000 0.000000
vn 1.000000 0.000000 0.000000
vn 1.000000 0.000000 0.000000
vn 1.000000 0.000000 0.000000
s off
f 5/2/1 3/3/2 4/4/3 6/1/4
f 3/5/5 5/6/6 7/7/7 1/8/8
f 6/9/9 8/10/10 7/11/11 5/12/12
f 1/16/13 7/13/14 8/14/15 2/15/16
f 2/17/17 4/18/18 3/19/19 1/20/20
f 2/21/21 8/22/22 6/23/23 4/24/24
f 13/26/25 11/27/26 12/28/27 14/25/28
f 11/29/29 13/30/30 15/31/31 9/32/32
f 14/33/33 16/34/34 15/35/35 13/36/36
f 9/40/37 15/37/38 16/38/39 10/39/40
f 10/41/41 12/42/42 11/43/43 9/44/44
f 10/45/45 16/46/46 14/47/47 12/48/48
