# This file uses centimeters as units for non-parametric coordinates.

v -130.296844 -99.999969 78.322220
v -65.829956 -100.000000 68.111748
v -7.673601 -100.000000 38.479553
v 38.479626 -100.000000 -7.673633
v 68.111847 -100.000000 -65.829971
v 78.322365 -99.999969 -130.296890
v -130.296844 100.000000 78.322296
v -65.829941 100.000000 68.111847
v -7.673513 100.000000 38.479649
v 38.479671 100.000000 -7.673569
v 68.111832 100.000000 -65.829987
v 78.322365 100.000000 -130.296875
v -130.296814 -100.000000 130.296875
v -130.296814 100.000000 130.296875
v -49.768929 -100.000000 117.542519
v -49.768929 100.000000 117.542519
v 22.876337 -100.000000 80.527878
v 22.876337 100.000000 80.527878
v 80.527908 -100.000000 22.876249
v 80.527908 100.000000 22.876249
v 117.542488 -100.000000 -49.768993
v 117.542488 100.000000 -49.768993
v 130.296860 -100.000000 -130.296875
v 130.296860 100.000000 -130.296875
vt 0.061901 0.751537
vt 0.157809 0.751538
vt 0.157809 1.000000
vt 0.061901 1.000000
vt 0.244328 0.751538
vt 0.244328 1.000000
vt 0.312990 0.751538
vt 0.312990 1.000000
vt 0.495418 1.000000
vt 0.399510 0.751538
vt 0.399510 1.000000
vt 0.557319 1.000000
vt 0.495418 0.751537
vt 0.201010 0.251537
vt 0.061901 0.689636
vt 0.157843 0.689640
vt 0.157809 0.751538
vt 0.061901 0.751537
vt 0.244335 0.689649
vt 0.244328 0.751537
vt 0.312961 0.689695
vt 0.312990 0.751538
vt 0.399487 0.689638
vt 0.399510 0.751538
vt 0.495418 0.689638
vt 0.495417 0.751537
vt 0.158147 0.551362
vt 0.061897 0.551369
vt 0.061901 0.500000
vt 0.157809 0.500000
vt 0.244292 0.551359
vt 0.244328 0.500000
vt 0.312909 0.551372
vt 0.312990 0.500000
vt 0.399581 0.551361
vt 0.399510 0.500000
vt 0.495404 0.551363
vt 0.495418 0.500000
vt 0.000000 0.500000
vt 0.076779 0.500000
vt 0.076779 0.251537
vt -0.000000 0.251537
vt 0.146043 0.500000
vt 0.146043 0.251537
vt 0.201011 0.500000
vt 0.201010 0.251537
vt 0.557318 0.751537
vt 0.270274 0.500000
vt 0.270274 0.251537
vt 0.201011 0.500000
vt 0.347053 0.500000
vt 0.347053 0.251537
vt 0.000000 0.751537
vt 0.270274 0.251537
vt 0.270274 0.500000
vt 0.000000 1.000000
vt 0.076779 0.500000
vt 0.076779 0.251537
vt 0.146043 0.500000
vt 0.146043 0.251537
vt 0.158147 0.551362
vt 0.157809 0.500000
vt 0.244292 0.551359
vt 0.244328 0.500000
vt 0.312909 0.551372
vt 0.312990 0.500000
vt 0.399581 0.551361
vt 0.399510 0.500000
vn 0.156434 0.000000 0.987688
vn 0.309017 0.000000 0.951057
vn 0.309017 0.000000 0.951057
vn 0.156434 0.000000 0.987688
vn 0.587786 0.000000 0.809017
vn 0.587786 0.000000 0.809017
vn 0.809017 0.000000 0.587785
vn 0.809017 0.000000 0.587785
vn 0.951057 0.000000 0.309017
vn 0.951057 0.000000 0.309017
vn 0.987688 0.000000 0.156435
vn 0.987688 0.000000 0.156435
vn -0.000000 -1.000000 -0.000000
vn -0.000000 -1.000000 0.000000
vn -0.000000 -1.000000 0.000000
vn -0.000000 -1.000000 -0.000000
vn 0.000000 1.000000 0.000000
vn 0.000000 1.000000 0.000000
vn 0.000000 1.000000 0.000000
vn 0.000000 1.000000 0.000000
vn 0.000000 -1.000000 0.000000
vn 0.000000 -1.000000 -0.000000
vn 0.000000 1.000000 0.000000
vn 0.000000 1.000000 0.000000
vn 0.000000 -1.000000 -0.000000
vn 0.000000 -1.000000 -0.000000
vn 0.000000 1.000000 -0.000000
vn 0.000000 1.000000 -0.000000
vn -0.000000 -1.000000 -0.000000
vn -0.000000 -1.000000 -0.000000
vn 0.000000 1.000000 0.000000
vn 0.000000 1.000000 0.000000
vn -0.000000 -1.000000 -0.000000
vn -0.000000 -1.000000 -0.000000
vn 0.000000 1.000000 0.000000
vn 0.000000 1.000000 0.000000
vn -0.156433 0.000000 -0.987689
vn -0.309017 0.000000 -0.951057
vn -0.309017 0.000000 -0.951057
vn -0.156433 0.000000 -0.987689
vn -0.587786 0.000001 -0.809017
vn -0.587785 0.000001 -0.809017
vn -0.809017 0.000000 -0.587785
vn -0.809017 0.000000 -0.587785
vn -0.951057 0.000000 -0.309017
vn -0.951057 0.000000 -0.309017
vn -0.987688 -0.000000 -0.156434
vn -0.987688 -0.000000 -0.156434
vn -1.000000 -0.000000 0.000001
vn -1.000000 -0.000000 0.000001
vn -1.000000 -0.000000 0.000001
vn -1.000000 -0.000000 0.000001
vn 0.000000 0.000000 -1.000000
vn 0.000000 0.000000 -1.000000
vn 0.000000 0.000000 -1.000000
vn 0.000000 0.000000 -1.000000
s 1
f 13/1/1 15/2/2 16/3/3 14/4/4
f 15/2/2 17/5/5 18/6/6 16/3/3
f 17/5/5 19/7/7 20/8/8 18/6/6
f 19/7/7 21/10/9 22/11/10 20/8/8
f 21/10/9 23/13/11 24/9/12 22/11/10
s 2
f 1/15/13 2/16/14 15/17/15 13/18/16
s 3
f 8/61/17 7/28/18 14/29/19 16/62/20
s 2
f 2/16/14 3/19/21 17/20/22 15/17/15
s 3
f 9/63/23 8/27/17 16/30/20 18/64/24
s 2
f 3/19/21 4/21/25 19/22/26 17/20/22
s 3
f 10/65/27 9/31/23 18/32/24 20/66/28
s 2
f 4/21/25 5/23/29 21/24/30 19/22/26
s 3
f 11/67/31 10/33/27 20/34/28 22/68/32
s 2
f 5/23/29 6/25/33 23/26/34 21/24/30
s 3
f 12/37/35 11/35/31 22/36/32 24/38/36
s 4
f 7/39/37 8/57/38 2/58/39 1/42/40
f 8/40/38 9/59/41 3/60/42 2/41/39
f 9/43/41 10/50/43 4/14/44 3/44/42
f 10/45/43 11/55/45 5/54/46 4/46/44
f 11/48/45 12/51/47 6/52/48 5/49/46
s off
f 1/53/49 13/1/50 14/4/51 7/56/52
f 23/13/53 6/47/54 12/12/55 24/9/56
