# This file uses centimeters as units for non-parametric coordinates.

v -400.000000 -100.000000 25.000000
v 400.000000 -100.000000 25.000000
v -400.000000 100.000000 25.000000
v 400.000000 100.000000 25.000000
v -400.000000 100.000000 -25.000000
v 400.000000 100.000000 -25.000000
v -400.000000 -100.000000 -25.000000
v 400.000000 -100.000000 -25.000000
vt 0.270350 0.157173
vt 0.021346 0.157173
vt 0.021346 0.094922
vt 0.270350 0.094922
vt 0.000000 1.000000
vt 0.000000 0.750996
vt 0.996016 0.750996
vt 0.996016 1.000000
vt 0.996016 0.700000
vt 0.996016 0.750996
vt 0.000000 0.750996
vt -0.000000 0.700000
vt 0.000000 0.250996
vt 0.000000 0.500000
vt 0.996016 0.500000
vt 0.996016 0.250996
vt 0.021346 0.018230
vt 0.021346 0.080481
vt 0.270350 0.080481
vt 0.270350 0.018230
vt 0.000000 0.250996
vt 0.000000 0.200000
vt 0.996016 0.200000
vt 0.996016 0.250996
vn -1.000000 0.000000 0.000000
vn -1.000000 0.000000 0.000000
vn -1.000000 0.000000 0.000000
vn -1.000000 0.000000 0.000000
vn 0.000000 0.000000 -1.000000
vn 0.000000 0.000000 -1.000000
vn 0.000000 0.000000 -1.000000
vn 0.000000 0.000000 -1.000000
vn 0.000000 -1.000000 0.000000
vn 0.000000 -1.000000 0.000000
vn 0.000000 -1.000000 0.000000
vn 0.000000 -1.000000 0.000000
vn 0.000000 0.000000 1.000000
vn 0.000000 0.000000 1.000000
vn 0.000000 0.000000 1.000000
vn 0.000000 0.000000 1.000000
vn 1.000000 0.000000 0.000000
vn 1.000000 0.000000 0.000000
vn 1.000000 0.000000 0.000000
vn 1.000000 0.000000 0.000000
vn 0.000000 1.000000 0.000000
vn 0.000000 1.000000 0.000000
vn 0.000000 1.000000 0.000000
vn 0.000000 1.000000 0.000000
s off
f 5/1/1 7/2/2 1/3/3 3/4/4
f 6/5/5 8/6/6 7/7/7 5/8/8
f 1/9/9 7/10/10 8/11/11 2/12/12
f 2/13/13 4/14/14 3/15/15 1/16/16
f 2/17/17 8/18/18 6/19/19 4/20/20
f 5/23/21 3/24/22 4/21/23 6/22/24
