# This file uses centimeters as units for non-parametric coordinates.

v -200.000000 -100.000000 25.000000
v 200.000000 -100.000000 25.000000
v -200.000000 100.000000 25.000000
v 200.000000 100.000000 25.000000
v -200.000000 100.000000 -25.000000
v 200.000000 100.000000 -25.000000
v -200.000000 -100.000000 -25.000000
v 200.000000 -100.000000 -25.000000
vt 0.000000 0.250147
vt 0.499707 0.250147
vt 0.499707 0.200000
vt 0.000000 0.200000
vt 0.499707 1.000000
vt 0.553496 1.000000
vt 0.553496 0.750147
vt 0.499707 0.750147
vt -0.000000 0.500000
vt -0.000000 0.250147
vt 0.499707 0.250147
vt 0.499707 0.500000
vt 0.499707 0.700000
vt 0.000000 0.700000
vt 0.000000 0.750147
vt 0.499707 0.750147
vt 0.000000 0.750147
vt 0.000000 1.000000
vt 0.499707 1.000000
vt 0.499707 0.750147
vt 0.952488 0.250147
vt 1.000000 0.250147
vt 1.000000 0.500000
vt 0.952488 0.500000
vn 0.000000 1.000000 0.000000
vn 0.000000 1.000000 0.000000
vn 0.000000 1.000000 0.000000
vn 0.000000 1.000000 0.000000
vn -1.000000 0.000000 0.000000
vn -1.000000 0.000000 0.000000
vn -1.000000 0.000000 0.000000
vn -1.000000 0.000000 0.000000
vn 0.000000 0.000000 -1.000000
vn 0.000000 0.000000 -1.000000
vn 0.000000 0.000000 -1.000000
vn 0.000000 0.000000 -1.000000
vn 0.000000 -1.000000 0.000000
vn 0.000000 -1.000000 0.000000
vn 0.000000 -1.000000 0.000000
vn 0.000000 -1.000000 0.000000
vn 0.000000 0.000000 1.000000
vn 0.000000 0.000000 1.000000
vn 0.000000 0.000000 1.000000
vn 0.000000 0.000000 1.000000
vn 1.000000 0.000000 0.000000
vn 1.000000 0.000000 0.000000
vn 1.000000 0.000000 0.000000
vn 1.000000 0.000000 0.000000
s off
f 5/2/1 3/3/2 4/4/3 6/1/4
f 3/5/5 5/6/6 7/7/7 1/8/8
f 6/9/9 8/10/10 7/11/11 5/12/12
f 1/16/13 7/13/14 8/14/15 2/15/16
f 2/17/17 4/18/18 3/19/19 1/20/20
f 2/21/21 8/22/22 6/23/23 4/24/24
