# This file uses centimeters as units for non-parametric coordinates.

v 0.000000 0.000000 0.000000
v 0.000000 388.131104 0.000000
v 0.000000 388.131104 -9.937004
v 0.000000 0.000000 -9.937004
v 117.517944 569.525330 0.000000
v 117.517944 569.525330 -9.937004
v 131.547180 576.029114 0.000000
v 131.547180 576.029114 -9.937004
v 131.547180 388.131104 -9.937004
v 131.547180 0.000000 -9.937004
v 131.547180 0.000000 0.000000
v 131.547180 388.131104 0.000000
v 131.547180 529.054626 0.000000
v 67.214050 529.054626 0.000000
v 67.214050 529.054626 -9.937004
v 131.547180 529.054626 -9.937004
v 131.547180 482.080139 0.000000
v 32.582092 482.080139 0.000000
v 32.582092 482.080139 -9.937004
v 131.547180 482.080139 -9.937004
v 131.547180 435.105591 0.000000
v 7.765503 435.105591 0.000000
v 7.765503 435.105591 -9.937004
v 131.547180 435.105591 -9.937004
v 131.547180 555.194885 0.000000
v 93.509338 555.328003 0.000000
v 93.509338 555.328003 -9.937004
v 131.547180 555.194885 -9.937004
v 131.547180 411.618347 0.000000
v 2.091370 411.618347 0.000000
v 2.091370 411.618347 -9.937004
v 131.547180 411.618347 -9.937004
v 131.547180 458.592896 0.000000
v 19.863770 458.592896 0.000000
v 19.863770 458.592896 -9.937004
v 131.547180 458.592896 -9.937004
v 131.547180 505.567383 0.000000
v 47.818787 505.567383 0.000000
v 47.818787 505.567383 -9.937004
v 131.547180 505.567383 -9.937004
v 105.888725 250.882080 -7.823242
v 118.986382 250.882080 -7.823242
v 105.888725 250.882080 1.930920
v 118.986382 250.882080 1.930920
v 105.888725 263.528076 1.930920
v 118.986382 263.528076 1.930920
v 105.888725 263.528076 -7.823242
v 118.986382 263.528076 -7.823242
v 109.053978 253.938171 1.930920
v 115.821098 253.938171 1.930920
v 115.821098 260.471985 1.930920
v 109.053978 260.471985 1.930920
v 109.053978 253.938171 12.705215
v 115.821098 253.938171 12.705215
v 115.821098 260.471985 16.707542
v 109.053978 260.471985 16.707542
v 118.986382 212.399231 -7.823242
v 105.888725 212.399231 -7.823242
v 118.986382 212.399231 1.930920
v 105.888725 212.399231 1.930920
v 118.986382 199.753235 1.930920
v 105.888725 199.753235 1.930920
v 118.986382 199.753235 -7.823242
v 105.888725 199.753235 -7.823242
v 115.821129 209.343079 1.930920
v 109.054008 209.343079 1.930920
v 109.054008 202.809326 1.930920
v 115.821129 202.809326 1.930920
v 115.821129 209.343079 12.705215
v 109.054008 209.343079 12.705215
v 109.054008 202.809326 16.707542
v 115.821129 202.809326 16.707542
vt 0.218798 0.150507
vt 0.308611 0.150507
vt 0.308611 0.415501
vt 0.218798 0.415501
vt 0.127646 0.930216
vt 0.127646 0.920637
vt 0.134431 0.920637
vt 0.134431 0.930216
vt 0.316786 0.278793
vt 0.406599 0.278793
vt 0.406599 0.543787
vt 0.316786 0.543787
vt 0.526388 0.922761
vt 0.526388 0.832948
vt 0.533173 0.832948
vt 0.533173 0.922761
vt 0.777103 0.150507
vt 0.783888 0.150507
vt 0.783888 0.415501
vt 0.777103 0.415501
vt 0.308611 0.431537
vt 0.220226 0.431537
vt 0.318214 0.262758
vt 0.406599 0.262758
vt 0.783888 0.431537
vt 0.777103 0.431537
vt 0.264688 0.511716
vt 0.308611 0.511716
vt 0.308611 0.529563
vt 0.282641 0.529654
vt 0.134431 0.964560
vt 0.127646 0.964560
vt 0.127646 0.946607
vt 0.134431 0.946607
vt 0.406599 0.182579
vt 0.362676 0.182579
vt 0.380629 0.164641
vt 0.406599 0.164732
vt 0.241043 0.479644
vt 0.308611 0.479644
vt 0.308611 0.495680
vt 0.251446 0.495680
vt 0.134431 0.988205
vt 0.127646 0.988205
vt 0.127646 0.977802
vt 0.134431 0.977802
vt 0.406599 0.214650
vt 0.339032 0.214650
vt 0.349434 0.198614
vt 0.406599 0.198614
vt 0.224100 0.447573
vt 0.308611 0.447573
vt 0.308611 0.463608
vt 0.232360 0.463608
vt 0.777103 0.447573
vt 0.783888 0.447573
vt 0.783888 0.463608
vt 0.777103 0.463608
vt 0.406599 0.246722
vt 0.322088 0.246722
vt 0.330348 0.230686
vt 0.406599 0.230686
vt 0.308611 0.543787
vt 0.299033 0.539347
vt 0.397021 0.154948
vt 0.406599 0.150507
vt 0.783888 0.479644
vt 0.777103 0.479644
vt 0.414775 0.415501
vt 0.414775 0.150507
vt 0.421559 0.150507
vt 0.421559 0.415501
vt 0.414775 0.431537
vt 0.421559 0.431537
vt 0.414775 0.529563
vt 0.414775 0.511716
vt 0.421559 0.511716
vt 0.421559 0.529563
vt 0.414775 0.495680
vt 0.414775 0.479644
vt 0.421559 0.479644
vt 0.421559 0.495680
vt 0.414775 0.463608
vt 0.414775 0.447573
vt 0.421559 0.447573
vt 0.421559 0.463608
vt 0.414775 0.543787
vt 0.421559 0.543787
vt 0.629480 0.130936
vt 0.629480 0.121994
vt 0.636140 0.121994
vt 0.636140 0.130936
vt 0.661383 0.130936
vt 0.661383 0.121994
vt 0.668043 0.121994
vt 0.668043 0.130936
vt 0.415053 0.979442
vt 0.415053 0.970499
vt 0.423687 0.970499
vt 0.423687 0.979442
vt 0.590992 0.105808
vt 0.590992 0.114442
vt 0.584332 0.114442
vt 0.584332 0.105808
vt 0.600284 0.114442
vt 0.600284 0.105808
vt 0.606943 0.105808
vt 0.606943 0.114442
vt 0.677335 0.130936
vt 0.677335 0.121994
vt 0.679422 0.124155
vt 0.679421 0.128775
vt 0.685969 0.121994
vt 0.683883 0.124155
vt 0.685969 0.130936
vt 0.683883 0.128775
vt 0.578782 0.128591
vt 0.578782 0.123971
vt 0.586138 0.123971
vt 0.586138 0.128591
vt 0.386124 0.949577
vt 0.386124 0.954038
vt 0.376035 0.954038
vt 0.378768 0.949577
vt 0.784955 0.983148
vt 0.780335 0.983148
vt 0.780335 0.973060
vt 0.784955 0.973060
vt 0.394266 0.954038
vt 0.394266 0.949577
vt 0.401622 0.949577
vt 0.404354 0.954038
vt 0.417116 0.954038
vt 0.412496 0.954038
vt 0.412496 0.914669
vt 0.417116 0.914669
vt 0.401622 0.919130
vt 0.404354 0.914669
vt 0.543137 0.105808
vt 0.543137 0.114750
vt 0.536478 0.114750
vt 0.536478 0.105808
vt 0.652092 0.121994
vt 0.652092 0.130936
vt 0.645432 0.130936
vt 0.645432 0.121994
vt 0.577015 0.105808
vt 0.577014 0.114751
vt 0.568381 0.114751
vt 0.568381 0.105808
vt 0.648139 0.114442
vt 0.648139 0.105808
vt 0.654798 0.105808
vt 0.654798 0.114442
vt 0.670750 0.105808
vt 0.670750 0.114442
vt 0.664090 0.114442
vt 0.664090 0.105808
vt 0.561063 0.105808
vt 0.561063 0.114751
vt 0.558977 0.112589
vt 0.558977 0.107969
vt 0.552429 0.114751
vt 0.554516 0.112589
vt 0.552429 0.105808
vt 0.554516 0.107969
vt 0.697714 0.128081
vt 0.693094 0.128081
vt 0.693094 0.120725
vt 0.697714 0.120725
vt 0.394266 0.919130
vt 0.394266 0.914669
vt 0.371756 0.967475
vt 0.376376 0.967475
vt 0.376376 0.977564
vt 0.371756 0.977564
vt 0.386124 0.914669
vt 0.386124 0.919130
vt 0.378768 0.919130
vt 0.376035 0.914669
vt 0.581189 0.961244
vt 0.581189 0.991691
vt 0.576569 0.991691
vt 0.576569 0.961244
vn 0.000000 0.000000 1.000000
vn 0.000000 0.000000 1.000000
vn 0.000000 0.000000 1.000000
vn 0.000000 0.000000 1.000000
vn -0.478019 0.878350 0.000000
vn -0.420590 0.907251 0.000000
vn -0.420590 0.907251 0.000000
vn -0.478019 0.878350 0.000000
vn 0.000000 0.000000 -1.000000
vn 0.000000 0.000000 -1.000000
vn 0.000000 0.000000 -1.000000
vn 0.000000 0.000000 -1.000000
vn 0.000000 -1.000000 0.000000
vn 0.000000 -1.000000 0.000000
vn 0.000000 -1.000000 0.000000
vn 0.000000 -1.000000 0.000000
vn -1.000000 0.000000 0.000000
vn -1.000000 0.000000 0.000000
vn -0.999987 0.005081 0.000000
vn -0.999987 0.005081 0.000000
vn 0.000000 0.000000 1.000000
vn 0.000000 0.000000 1.000000
vn 0.000000 0.000000 -1.000000
vn 0.000000 0.000000 -1.000000
vn -0.986610 0.163100 0.000000
vn -0.986610 0.163100 0.000000
vn 0.000000 0.000000 1.000000
vn 0.000000 0.000000 1.000000
vn 0.000000 0.000000 1.000000
vn 0.000000 0.000000 1.000000
vn -0.736589 0.676341 0.000000
vn -0.736589 0.676341 0.000000
vn -0.626842 0.779146 0.000000
vn -0.626842 0.779146 0.000000
vn 0.000000 0.000000 -1.000000
vn 0.000000 0.000000 -1.000000
vn -0.000000 0.000000 -1.000000
vn -0.000000 0.000000 -1.000000
vn 0.000000 0.000000 1.000000
vn 0.000000 0.000000 1.000000
vn 0.000000 0.000000 1.000000
vn 0.000000 0.000000 1.000000
vn -0.859341 0.511403 0.000000
vn -0.859341 0.511403 0.000000
vn -0.804899 0.593412 0.000000
vn -0.804899 0.593412 0.000000
vn 0.000000 0.000000 -1.000000
vn 0.000000 0.000000 -1.000000
vn 0.000000 0.000000 -1.000000
vn 0.000000 0.000000 -1.000000
vn 0.000000 0.000000 1.000000
vn 0.000000 0.000000 1.000000
vn 0.000000 0.000000 1.000000
vn 0.000000 0.000000 1.000000
vn -0.935298 0.353862 0.000000
vn -0.935298 0.353862 0.000000
vn -0.884195 0.467119 0.000000
vn -0.884195 0.467119 0.000000
vn 0.000000 0.000000 -1.000000
vn 0.000000 0.000000 -1.000000
vn 0.000000 0.000000 -1.000000
vn 0.000000 0.000000 -1.000000
vn 0.000000 0.000000 1.000000
vn 0.000000 0.000000 1.000000
vn -0.000000 0.000000 -1.000000
vn -0.000000 0.000000 -1.000000
vn 1.000000 0.000000 0.000000
vn 1.000000 0.000000 0.000000
vn 1.000000 0.000000 0.000000
vn 1.000000 0.000000 0.000000
vn 1.000000 0.000000 0.000000
vn 1.000000 0.000000 0.000000
vn 1.000000 0.000000 0.000000
vn 1.000000 0.000000 0.000000
vn 1.000000 0.000000 0.000000
vn 1.000000 0.000000 0.000000
vn 1.000000 0.000000 0.000000
vn 1.000000 0.000000 0.000000
vn 1.000000 0.000000 0.000000
vn 1.000000 0.000000 0.000000
vn 1.000000 0.000000 0.000000
vn 1.000000 0.000000 0.000000
vn 1.000000 0.000000 0.000000
vn 1.000000 0.000000 0.000000
vn 1.000000 0.000000 0.000000
vn 1.000000 0.000000 0.000000
vn 0.000000 -1.000000 0.000000
vn 0.000000 -1.000000 0.000000
vn 0.000000 -1.000000 0.000000
vn 0.000000 -1.000000 0.000000
vn 0.000000 1.000000 0.000000
vn 0.000000 1.000000 0.000000
vn 0.000000 1.000000 0.000000
vn 0.000000 1.000000 0.000000
vn 0.000000 0.000000 -1.000000
vn 0.000000 0.000000 -1.000000
vn 0.000000 0.000000 -1.000000
vn 0.000000 0.000000 -1.000000
vn 1.000000 0.000000 0.000000
vn 1.000000 0.000000 0.000000
vn 1.000000 0.000000 0.000000
vn 1.000000 0.000000 0.000000
vn -1.000000 0.000000 0.000000
vn -1.000000 0.000000 0.000000
vn -1.000000 0.000000 0.000000
vn -1.000000 0.000000 0.000000
vn -0.000000 0.000000 1.000000
vn 0.000000 0.000000 1.000000
vn 0.000000 0.000000 1.000000
vn -0.000000 0.000000 1.000000
vn 0.000000 0.000000 1.000000
vn 0.000000 0.000000 1.000000
vn -0.000000 0.000000 1.000000
vn -0.000000 0.000000 1.000000
vn 0.000000 -1.000000 0.000000
vn 0.000000 -1.000000 0.000000
vn 0.000000 -1.000000 0.000000
vn 0.000000 -1.000000 0.000000
vn 1.000000 -0.000001 0.000000
vn 1.000000 -0.000001 0.000000
vn 1.000000 -0.000000 -0.000000
vn 1.000000 0.000000 -0.000000
vn 0.000000 1.000000 0.000000
vn 0.000000 1.000000 0.000000
vn 0.000000 1.000000 0.000000
vn 0.000000 1.000000 0.000000
vn -1.000000 0.000000 0.000000
vn -1.000000 0.000000 0.000000
vn -1.000000 -0.000000 0.000000
vn -1.000000 -0.000000 0.000000
vn 0.000000 0.000000 1.000000
vn 0.000000 0.000000 1.000000
vn 0.000000 0.000000 1.000000
vn 0.000000 0.000000 1.000000
vn -1.000000 -0.000000 0.000000
vn -1.000000 -0.000000 0.000000
vn 0.000000 1.000000 0.000000
vn 0.000000 1.000000 0.000000
vn 0.000000 1.000000 0.000000
vn 0.000000 1.000000 0.000000
vn 0.000000 -1.000000 0.000000
vn 0.000000 -1.000000 0.000000
vn 0.000000 -1.000000 0.000000
vn 0.000000 -1.000000 0.000000
vn 0.000000 0.000000 -1.000000
vn 0.000000 0.000000 -1.000000
vn 0.000000 0.000000 -1.000000
vn 0.000000 0.000000 -1.000000
vn -1.000000 0.000000 0.000000
vn -1.000000 0.000000 0.000000
vn -1.000000 0.000000 0.000000
vn -1.000000 0.000000 0.000000
vn 1.000000 0.000000 0.000000
vn 1.000000 0.000000 0.000000
vn 1.000000 0.000000 0.000000
vn 1.000000 0.000000 0.000000
vn 0.000000 0.000000 1.000000
vn 0.000000 0.000000 1.000000
vn 0.000000 0.000000 1.000000
vn 0.000000 0.000000 1.000000
vn 0.000000 0.000000 1.000000
vn 0.000000 0.000000 1.000000
vn 0.000000 0.000000 1.000000
vn 0.000000 0.000000 1.000000
vn 0.000000 1.000000 0.000000
vn 0.000000 1.000000 0.000000
vn 0.000000 1.000000 0.000000
vn 0.000000 1.000000 0.000000
vn -1.000000 0.000000 0.000000
vn -1.000000 0.000000 0.000000
vn 0.000000 -1.000000 0.000000
vn 0.000000 -1.000000 0.000000
vn 0.000000 -1.000000 0.000000
vn 0.000000 -1.000000 0.000000
vn 1.000000 0.000001 0.000000
vn 1.000000 0.000001 0.000000
vn 1.000000 0.000001 -0.000000
vn 1.000000 0.000001 -0.000000
vn 0.000000 0.000000 -1.000000
vn 0.000000 0.000000 -1.000000
vn 0.000000 0.000000 -1.000000
vn 0.000000 0.000000 -1.000000
s 1
f 1/1/1 11/2/2 12/3/3 2/4/4
s 2
f 5/5/5 7/6/6 8/7/7 6/8/8
s 3
f 3/9/9 9/10/10 10/11/11 4/12/12
s off
f 4/13/13 10/14/14 11/15/15 1/16/16
s 2
f 4/17/17 1/18/18 2/19/19 3/20/20
s 1
f 2/4/4 12/3/3 29/21/21 30/22/22
s 3
f 9/10/10 3/9/9 31/23/23 32/24/24
s 2
f 3/20/20 2/19/19 30/25/25 31/26/26
s 1
f 14/27/27 13/28/28 25/29/29 26/30/30
s 2
f 15/31/31 14/32/32 26/33/33 27/34/34
s 3
f 16/35/35 15/36/36 27/37/37 28/38/38
s 1
f 18/39/39 17/40/40 37/41/41 38/42/42
s 2
f 19/43/43 18/44/44 38/45/45 39/46/46
s 3
f 20/47/47 19/48/48 39/49/49 40/50/50
s 1
f 22/51/51 21/52/52 33/53/53 34/54/54
s 2
f 23/55/55 22/56/56 34/57/57 35/58/58
s 3
f 24/59/59 23/60/60 35/61/61 36/62/62
s 1
f 26/30/30 25/29/29 7/63/63 5/64/64
s 2
f 27/34/34 26/33/33 5/5/5 6/8/8
s 3
f 28/38/38 27/37/37 6/65/65 8/66/66
s 1
f 30/22/22 29/21/21 21/52/52 22/51/51
s 2
f 31/26/26 30/25/25 22/56/56 23/55/55
s 3
f 32/24/24 31/23/23 23/60/60 24/59/59
s 1
f 34/54/54 33/53/53 17/40/40 18/39/39
s 2
f 35/58/58 34/57/57 18/67/44 19/68/43
s 3
f 36/62/62 35/61/61 19/48/48 20/47/47
s 1
f 38/42/42 37/41/41 13/28/28 14/27/27
s 2
f 39/46/46 38/45/45 14/32/32 15/31/31
s 3
f 40/50/50 39/49/49 15/36/36 16/35/35
s 11
f 12/69/67 11/70/68 10/71/69 9/72/70
f 29/73/71 12/69/67 9/72/70 32/74/72
f 25/75/73 13/76/74 16/77/75 28/78/76
f 37/79/77 17/80/78 20/81/79 40/82/80
f 33/83/81 21/84/82 24/85/83 36/86/84
f 7/87/85 25/75/73 28/78/76 8/88/86
f 21/84/82 29/73/71 32/74/72 24/85/83
f 17/80/78 33/83/81 36/86/84 20/81/79
f 13/76/74 37/79/77 40/82/80 16/77/75
s off
f 41/89/87 42/90/88 44/91/89 43/92/90
f 45/93/91 46/94/92 48/95/93 47/96/94
f 47/97/95 48/98/96 42/99/97 41/100/98
f 42/101/99 48/102/100 46/103/101 44/104/102
f 47/105/103 41/106/104 43/107/105 45/108/106
s 14
f 43/109/107 44/110/108 50/111/109 49/112/110
f 44/110/108 46/113/111 51/114/112 50/111/109
f 46/113/111 45/115/113 52/116/114 51/114/112
f 45/115/113 43/109/107 49/112/110 52/116/114
s off
f 49/117/115 50/118/116 54/119/117 53/120/118
s 15
f 50/121/119 51/122/120 55/123/121 54/124/122
s off
f 51/125/123 52/126/124 56/127/125 55/128/126
s 16
f 52/129/127 49/130/128 53/131/129 56/132/130
s off
f 55/133/131 56/134/132 71/135/133 72/136/134
s 16
f 56/132/130 53/131/129 70/137/135 71/138/136
s off
f 57/139/137 58/140/138 60/141/139 59/142/140
f 61/143/141 62/144/142 64/145/143 63/146/144
f 63/147/145 64/148/146 58/149/147 57/150/148
f 58/151/149 64/152/150 62/153/151 60/154/152
f 63/155/153 57/156/154 59/157/155 61/158/156
s 17
f 59/159/157 60/160/158 66/161/159 65/162/160
f 60/160/158 62/163/161 67/164/162 66/161/159
f 62/163/161 61/165/163 68/166/164 67/164/162
f 61/165/163 59/159/157 65/162/160 68/166/164
s off
f 65/167/165 66/168/166 70/169/167 69/170/168
s 16
f 66/171/169 67/172/170 71/138/136 70/137/135
s off
f 67/173/171 68/174/172 72/175/173 71/176/174
s 15
f 68/177/175 65/178/176 69/179/177 72/180/178
s off
f 54/181/179 69/182/180 70/183/181 53/184/182
s 15
f 55/123/121 72/180/178 69/179/177 54/124/122
