# This file uses centimeters as units for non-parametric coordinates.

v 0.000000 0.000000 0.000000
v 0.000000 388.131104 0.000000
v -0.015747 388.131104 -9.936999
v -0.015747 0.000000 -9.936999
v -67.229797 529.054626 -9.896890
v -67.214050 529.054626 0.040110
v -32.597839 482.080109 -9.917556
v -32.582092 482.080109 0.019444
v -7.781250 435.105591 -9.932364
v -7.765503 435.105591 0.004635
v -93.525024 555.328003 -9.881198
v -93.509277 555.328003 0.055803
v -2.107117 411.618347 -9.935752
v -2.091370 411.618347 0.001249
v -19.879517 458.592865 -9.925145
v -19.863770 458.592865 0.011854
v -47.834534 505.567352 -9.908463
v -47.818787 505.567352 0.028538
v -131.381714 388.131104 -9.857521
v -131.381714 411.618347 -9.857521
v -131.381714 0.000000 -9.857521
v -131.381714 0.000000 0.079477
v -131.381714 388.131104 0.079477
v -131.381714 411.618347 0.079477
v -131.381714 529.054626 -9.857521
v -131.381714 555.194824 -9.857521
v -131.381714 555.194824 0.079477
v -131.381714 529.054626 0.079477
v -131.381714 482.080109 -9.857521
v -131.381714 505.567352 -9.857521
v -131.381714 505.567352 0.079477
v -131.381714 482.080109 0.079477
v -131.381714 435.105591 -9.857521
v -131.381714 458.592865 -9.857521
v -131.381714 458.592865 0.079477
v -131.381714 435.105591 0.079477
v -131.381714 576.029114 -9.857521
v -117.533630 569.525330 -9.866870
v -117.517883 569.525330 0.070129
v -131.381714 576.029114 0.079477
v -117.066109 251.562317 -7.823236
v -103.968452 251.562317 -7.823236
v -117.066109 251.562317 1.930926
v -103.968452 251.562317 1.930926
v -117.066109 264.208313 1.930926
v -103.968452 264.208313 1.930926
v -117.066109 264.208313 -7.823236
v -103.968452 264.208313 -7.823236
v -113.900856 254.618408 1.930926
v -107.133736 254.618408 1.930926
v -107.133736 261.152222 1.930926
v -113.900856 261.152222 1.930926
v -113.900856 254.618408 12.705220
v -107.133736 254.618408 12.705220
v -107.133736 261.152222 16.707546
v -113.900856 261.152222 16.707546
v -103.968452 213.079468 -7.823236
v -117.066109 213.079468 -7.823236
v -103.968452 213.079468 1.930926
v -117.066109 213.079468 1.930926
v -103.968452 200.433472 1.930926
v -117.066109 200.433472 1.930926
v -103.968452 200.433472 -7.823236
v -117.066109 200.433472 -7.823236
v -107.133705 210.023315 1.930926
v -113.900826 210.023315 1.930926
v -113.900826 203.489563 1.930926
v -107.133705 203.489563 1.930926
v -107.133705 210.023315 12.705220
v -113.900826 210.023315 12.705220
v -113.900826 203.489563 16.707546
v -107.133705 203.489563 16.707546
vt 0.642702 0.150507
vt 0.649487 0.150507
vt 0.649487 0.415501
vt 0.642702 0.415501
vt 0.649486 0.431537
vt 0.642701 0.431537
vt 0.520415 0.278793
vt 0.430726 0.278793
vt 0.430726 0.262758
vt 0.518987 0.262758
vt 0.430726 0.543787
vt 0.520415 0.543787
vt 0.519215 0.922648
vt 0.512430 0.922648
vt 0.512376 0.832959
vt 0.519161 0.832948
vt 0.528714 0.415501
vt 0.528714 0.150507
vt 0.618414 0.150507
vt 0.618414 0.415501
vt 0.616986 0.431537
vt 0.528714 0.431537
vt 0.474525 0.182579
vt 0.430726 0.182579
vt 0.430726 0.164732
vt 0.456573 0.164641
vt 0.642675 0.511716
vt 0.649459 0.511716
vt 0.649448 0.529654
vt 0.642664 0.529654
vt 0.554571 0.529654
vt 0.528714 0.529563
vt 0.528714 0.511716
vt 0.572524 0.511716
vt 0.498170 0.214650
vt 0.430726 0.214650
vt 0.430726 0.198614
vt 0.487767 0.198614
vt 0.642689 0.479644
vt 0.649473 0.479644
vt 0.649467 0.495680
vt 0.642683 0.495680
vt 0.585766 0.495680
vt 0.528714 0.495680
vt 0.528714 0.479644
vt 0.596169 0.479644
vt 0.515113 0.246722
vt 0.430726 0.246722
vt 0.430726 0.230686
vt 0.506853 0.230686
vt 0.642699 0.447573
vt 0.649483 0.447573
vt 0.649478 0.463608
vt 0.642694 0.463608
vt 0.604852 0.463608
vt 0.528714 0.463608
vt 0.528714 0.447573
vt 0.613112 0.447573
vt 0.430726 0.150507
vt 0.440181 0.154948
vt 0.649439 0.539347
vt 0.642654 0.539347
vt 0.528714 0.543787
vt 0.538180 0.539347
vt 0.633487 0.150507
vt 0.633487 0.415501
vt 0.626703 0.415501
vt 0.626703 0.150507
vt 0.633487 0.431537
vt 0.626703 0.431537
vt 0.633487 0.511716
vt 0.633487 0.529563
vt 0.626703 0.529563
vt 0.626703 0.511716
vt 0.633487 0.479644
vt 0.633487 0.495680
vt 0.626703 0.495680
vt 0.626703 0.479644
vt 0.633487 0.447573
vt 0.633487 0.463608
vt 0.626703 0.463608
vt 0.626703 0.447573
vt 0.633487 0.543787
vt 0.626703 0.543787
vt 0.399101 0.979964
vt 0.399108 0.970499
vt 0.405892 0.970510
vt 0.405886 0.979964
vt 0.494811 0.983548
vt 0.494811 0.974605
vt 0.501470 0.974605
vt 0.501470 0.983548
vt 0.431005 0.979512
vt 0.431005 0.970569
vt 0.437664 0.970569
vt 0.437664 0.979512
vt 0.446956 0.979512
vt 0.446956 0.970569
vt 0.455590 0.970569
vt 0.455590 0.979512
vt 0.622895 0.105808
vt 0.622895 0.114442
vt 0.616235 0.114442
vt 0.616235 0.105808
vt 0.632187 0.114442
vt 0.632187 0.105808
vt 0.638847 0.105808
vt 0.638847 0.114442
vt 0.510762 0.983547
vt 0.510762 0.974605
vt 0.512849 0.976766
vt 0.512849 0.981386
vt 0.519396 0.974605
vt 0.517310 0.976766
vt 0.519396 0.983547
vt 0.517310 0.981386
vt 0.568240 0.122191
vt 0.572860 0.122191
vt 0.572860 0.129547
vt 0.568240 0.129547
vt 0.436257 0.949577
vt 0.436257 0.954038
vt 0.426169 0.954038
vt 0.428901 0.949577
vt 0.798628 0.983148
vt 0.794008 0.983148
vt 0.794008 0.973060
vt 0.798628 0.973060
vt 0.444399 0.954038
vt 0.444399 0.949577
vt 0.451755 0.949577
vt 0.454488 0.954038
vt 0.467250 0.954038
vt 0.462629 0.954038
vt 0.462629 0.914669
vt 0.467250 0.914669
vt 0.451755 0.919130
vt 0.454488 0.914669
vt 0.469567 0.970569
vt 0.469567 0.979512
vt 0.462908 0.979512
vt 0.462908 0.970569
vt 0.604237 0.121994
vt 0.604237 0.130936
vt 0.597577 0.130936
vt 0.597577 0.121994
vt 0.487493 0.970569
vt 0.487493 0.979512
vt 0.478859 0.979512
vt 0.478859 0.970569
vt 0.680042 0.114442
vt 0.680042 0.105808
vt 0.686701 0.105808
vt 0.686701 0.114442
vt 0.702653 0.105808
vt 0.702653 0.114442
vt 0.695993 0.114442
vt 0.695993 0.105808
vt 0.622163 0.121994
vt 0.622163 0.130936
vt 0.620076 0.128775
vt 0.620076 0.124155
vt 0.613529 0.130936
vt 0.615616 0.128775
vt 0.613529 0.121994
vt 0.615615 0.124155
vt 0.711387 0.128081
vt 0.706767 0.128081
vt 0.706767 0.120725
vt 0.711387 0.120725
vt 0.444399 0.919130
vt 0.444399 0.914669
vt 0.385429 0.967475
vt 0.390049 0.967475
vt 0.390049 0.977564
vt 0.385429 0.977564
vt 0.436257 0.914669
vt 0.436257 0.919130
vt 0.428901 0.919130
vt 0.426169 0.914669
vt 0.594862 0.961244
vt 0.594862 0.991691
vt 0.590242 0.991691
vt 0.590242 0.961244
vn 0.999999 0.000000 -0.001585
vn 0.999999 0.000000 -0.001585
vn 0.999986 0.005081 -0.001585
vn 0.999986 0.005081 -0.001585
vn 0.986607 0.163107 -0.001564
vn 0.986610 0.163092 -0.001564
vn -0.000605 -0.000000 -1.000000
vn -0.000605 -0.000000 -1.000000
vn -0.000605 -0.000001 -1.000000
vn -0.000605 -0.000001 -1.000000
vn -0.000605 0.000000 -1.000000
vn -0.000605 0.000000 -1.000000
vn 0.000000 -1.000000 0.000000
vn 0.000000 -1.000000 0.000000
vn 0.000000 -1.000000 0.000000
vn 0.000000 -1.000000 0.000000
vn 0.000605 0.000000 1.000000
vn 0.000605 0.000000 1.000000
vn 0.000605 0.000000 1.000000
vn 0.000605 0.000000 1.000000
vn 0.000605 0.000001 1.000000
vn 0.000605 0.000001 1.000000
vn -0.000613 -0.000007 -1.000000
vn -0.000614 -0.000008 -1.000000
vn -0.000624 -0.000016 -1.000000
vn -0.000620 -0.000012 -1.000000
vn 0.736602 0.676325 -0.001168
vn 0.736575 0.676355 -0.001168
vn 0.626794 0.779184 -0.000994
vn 0.626889 0.779108 -0.000994
vn 0.000619 0.000012 1.000000
vn 0.000624 0.000015 1.000000
vn 0.000614 0.000008 1.000000
vn 0.000613 0.000007 1.000000
vn -0.000608 -0.000003 -1.000000
vn -0.000608 -0.000003 -1.000000
vn -0.000610 -0.000005 -1.000000
vn -0.000609 -0.000004 -1.000000
vn 0.859347 0.511392 -0.001362
vn 0.859334 0.511414 -0.001362
vn 0.804886 0.593429 -0.001276
vn 0.804911 0.593394 -0.001276
vn 0.000609 0.000004 1.000000
vn 0.000610 0.000005 1.000000
vn 0.000608 0.000003 1.000000
vn 0.000607 0.000003 1.000000
vn -0.000606 -0.000002 -1.000000
vn -0.000606 -0.000002 -1.000000
vn -0.000606 -0.000003 -1.000000
vn -0.000606 -0.000003 -1.000000
vn 0.935306 0.353837 -0.001483
vn 0.935287 0.353886 -0.001483
vn 0.884192 0.467122 -0.001401
vn 0.884195 0.467116 -0.001401
vn 0.000606 0.000002 1.000000
vn 0.000606 0.000003 1.000000
vn 0.000606 0.000002 1.000000
vn 0.000605 0.000002 1.000000
vn -0.000643 -0.000031 -1.000000
vn -0.000643 -0.000031 -1.000000
vn 0.479683 0.877442 -0.000641
vn 0.479724 0.877419 -0.000641
vn 0.000642 0.000031 1.000000
vn 0.000642 0.000031 1.000000
vn -1.000000 0.000000 0.000000
vn -1.000000 0.000000 0.000000
vn -1.000000 0.000000 0.000000
vn -1.000000 0.000000 0.000000
vn -1.000000 0.000000 0.000000
vn -1.000000 0.000000 0.000000
vn -1.000000 0.000000 0.000000
vn -1.000000 0.000000 0.000000
vn -1.000000 0.000000 0.000000
vn -1.000000 0.000000 0.000000
vn -1.000000 0.000000 0.000000
vn -1.000000 0.000000 0.000000
vn -1.000000 0.000000 0.000000
vn -1.000000 0.000000 0.000000
vn -1.000000 0.000000 0.000000
vn -1.000000 0.000000 0.000000
vn -1.000000 0.000000 0.000000
vn -1.000000 0.000000 0.000000
vn -1.000000 0.000000 0.000000
vn -1.000000 0.000000 0.000000
vn 0.424905 0.905238 -0.000337
vn 0.424905 0.905238 -0.000337
vn 0.000000 -1.000000 0.000000
vn 0.000000 -1.000000 0.000000
vn 0.000000 -1.000000 0.000000
vn 0.000000 -1.000000 0.000000
vn 0.000000 1.000000 0.000000
vn 0.000000 1.000000 0.000000
vn 0.000000 1.000000 0.000000
vn 0.000000 1.000000 0.000000
vn 0.000000 0.000000 -1.000000
vn 0.000000 0.000000 -1.000000
vn 0.000000 0.000000 -1.000000
vn 0.000000 0.000000 -1.000000
vn 1.000000 0.000000 0.000000
vn 1.000000 0.000000 0.000000
vn 1.000000 0.000000 0.000000
vn 1.000000 0.000000 0.000000
vn -1.000000 0.000000 0.000000
vn -1.000000 0.000000 0.000000
vn -1.000000 0.000000 0.000000
vn -1.000000 0.000000 0.000000
vn 0.000000 0.000000 1.000000
vn 0.000000 0.000000 1.000000
vn 0.000000 0.000000 1.000000
vn 0.000000 0.000000 1.000000
vn 0.000000 0.000000 1.000000
vn 0.000000 0.000000 1.000000
vn 0.000000 0.000000 1.000000
vn 0.000000 0.000000 1.000000
vn 0.000000 -1.000000 0.000000
vn 0.000000 -1.000000 0.000000
vn 0.000000 -1.000000 0.000000
vn 0.000000 -1.000000 0.000000
vn 1.000000 0.000000 0.000000
vn 1.000000 0.000000 0.000000
vn 1.000000 0.000000 -0.000000
vn 1.000000 0.000000 -0.000000
vn 0.000000 1.000000 0.000000
vn 0.000000 1.000000 0.000000
vn 0.000000 1.000000 0.000000
vn 0.000000 1.000000 0.000000
vn -1.000000 -0.000003 0.000000
vn -1.000000 -0.000003 0.000000
vn -1.000000 -0.000001 0.000000
vn -1.000000 -0.000002 0.000000
vn 0.000000 0.000000 1.000000
vn 0.000000 0.000000 1.000000
vn 0.000000 0.000000 1.000000
vn 0.000000 0.000000 1.000000
vn -1.000000 0.000000 0.000000
vn -1.000000 0.000001 0.000000
vn 0.000000 1.000000 0.000000
vn 0.000000 1.000000 0.000000
vn 0.000000 1.000000 0.000000
vn 0.000000 1.000000 0.000000
vn 0.000000 -1.000000 0.000000
vn 0.000000 -1.000000 0.000000
vn 0.000000 -1.000000 0.000000
vn 0.000000 -1.000000 0.000000
vn 0.000000 0.000000 -1.000000
vn 0.000000 0.000000 -1.000000
vn 0.000000 0.000000 -1.000000
vn 0.000000 0.000000 -1.000000
vn -1.000000 0.000000 0.000000
vn -1.000000 0.000000 0.000000
vn -1.000000 0.000000 0.000000
vn -1.000000 0.000000 0.000000
vn 1.000000 0.000000 0.000000
vn 1.000000 0.000000 0.000000
vn 1.000000 0.000000 0.000000
vn 1.000000 0.000000 0.000000
vn 0.000000 0.000000 1.000000
vn -0.000000 0.000000 1.000000
vn -0.000000 0.000000 1.000000
vn 0.000000 0.000000 1.000000
vn -0.000000 0.000000 1.000000
vn -0.000000 0.000000 1.000000
vn 0.000000 0.000000 1.000000
vn 0.000000 0.000000 1.000000
vn 0.000000 1.000000 0.000000
vn 0.000000 1.000000 0.000000
vn 0.000000 1.000000 0.000000
vn 0.000000 1.000000 0.000000
vn -1.000000 0.000003 0.000000
vn -1.000000 0.000003 0.000000
vn 0.000000 -1.000000 0.000000
vn 0.000000 -1.000000 0.000000
vn 0.000000 -1.000000 0.000000
vn 0.000000 -1.000000 0.000000
vn 1.000000 0.000000 0.000000
vn 1.000000 0.000000 0.000000
vn 1.000000 0.000000 -0.000000
vn 1.000000 0.000000 -0.000000
vn 0.000000 0.000000 -1.000000
vn 0.000000 0.000000 -1.000000
vn 0.000000 0.000000 -1.000000
vn 0.000000 0.000000 -1.000000
s 1
f 1/1/1 4/2/2 3/3/3 2/4/4
f 2/4/4 3/3/3 13/5/5 14/6/6
s 2
f 3/7/7 19/8/8 20/9/9 13/10/10
f 21/11/11 19/8/8 3/7/7 4/12/12
s off
f 22/13/13 21/14/14 4/15/15 1/16/16
s 3
f 23/17/17 22/18/18 1/19/19 2/20/20
f 14/21/21 24/22/22 23/17/17 2/20/20
s 2
f 5/23/23 25/24/24 26/25/25 11/26/26
s 1
f 6/27/27 5/28/28 11/29/29 12/30/30
s 3
f 12/31/31 27/32/32 28/33/33 6/34/34
s 2
f 7/35/35 29/36/36 30/37/37 17/38/38
s 1
f 8/39/39 7/40/40 17/41/41 18/42/42
s 3
f 18/43/43 31/44/44 32/45/45 8/46/46
s 2
f 9/47/47 33/48/48 34/49/49 15/50/50
s 1
f 10/51/51 9/52/52 15/53/53 16/54/54
s 3
f 16/55/55 35/56/56 36/57/57 10/58/58
s 2
f 11/26/26 26/25/25 37/59/59 38/60/60
s 1
f 12/30/30 11/29/29 38/61/61 39/62/62
s 3
f 40/63/63 27/32/32 12/31/31 39/64/64
s 2
f 13/10/10 20/9/9 33/48/48 9/47/47
s 1
f 14/6/6 13/5/5 9/52/52 10/51/51
s 3
f 10/58/58 36/57/57 24/22/22 14/21/21
s 2
f 15/50/50 34/49/49 29/36/36 7/35/35
s 1
f 16/54/54 15/53/53 7/40/40 8/39/39
s 3
f 8/46/46 32/45/45 35/56/56 16/55/55
s 2
f 17/38/38 30/37/37 25/24/24 5/23/23
s 1
f 18/42/42 17/41/41 5/28/28 6/27/27
s 3
f 6/34/34 28/33/33 31/44/44 18/43/43
s 9
f 22/65/65 23/66/66 19/67/67 21/68/68
f 23/66/66 24/69/69 20/70/70 19/67/67
f 28/71/71 27/72/72 26/73/73 25/74/74
f 32/75/75 31/76/76 30/77/77 29/78/78
f 36/79/79 35/80/80 34/81/81 33/82/82
f 27/72/72 40/83/83 37/84/84 26/73/73
s 1
f 40/85/85 39/86/62 38/87/61 37/88/86
s 9
f 24/69/69 36/79/79 33/82/82 20/70/70
f 35/80/80 32/75/75 29/78/78 34/81/81
f 31/76/76 28/71/71 25/74/74 30/77/77
s off
f 41/89/87 42/90/88 44/91/89 43/92/90
f 45/93/91 46/94/92 48/95/93 47/96/94
f 47/97/95 48/98/96 42/99/97 41/100/98
f 42/101/99 48/102/100 46/103/101 44/104/102
f 47/105/103 41/106/104 43/107/105 45/108/106
s 11
f 43/109/107 44/110/108 50/111/109 49/112/110
f 44/110/108 46/113/111 51/114/112 50/111/109
f 46/113/111 45/115/113 52/116/114 51/114/112
f 45/115/113 43/109/107 49/112/110 52/116/114
s off
f 49/117/115 50/118/116 54/119/117 53/120/118
s 12
f 50/121/119 51/122/120 55/123/121 54/124/122
s off
f 51/125/123 52/126/124 56/127/125 55/128/126
s 13
f 52/129/127 49/130/128 53/131/129 56/132/130
s off
f 55/133/131 56/134/132 71/135/133 72/136/134
s 13
f 56/132/130 53/131/129 70/137/135 71/138/136
s off
f 57/139/137 58/140/138 60/141/139 59/142/140
f 61/143/141 62/144/142 64/145/143 63/146/144
f 63/147/145 64/148/146 58/149/147 57/150/148
f 58/151/149 64/152/150 62/153/151 60/154/152
f 63/155/153 57/156/154 59/157/155 61/158/156
s 14
f 59/159/157 60/160/158 66/161/159 65/162/160
f 60/160/158 62/163/161 67/164/162 66/161/159
f 62/163/161 61/165/163 68/166/164 67/164/162
f 61/165/163 59/159/157 65/162/160 68/166/164
s off
f 65/167/165 66/168/166 70/169/167 69/170/168
s 13
f 66/171/169 67/172/170 71/138/136 70/137/135
s off
f 67/173/171 68/174/172 72/175/173 71/176/174
s 12
f 68/177/175 65/178/176 69/179/177 72/180/178
s off
f 54/181/179 69/182/180 70/183/181 53/184/182
s 12
f 55/123/121 72/180/178 69/179/177 54/124/122
