# This file uses meters as units for non-parametric coordinates.

mtllib M_Plank_ShortSet_01.mtl
g default
v -454.484528 -668.169861 21.301220
v -426.082886 -678.271790 21.301220
v -397.681274 -681.639038 21.301220
v -369.279633 -681.639038 21.301220
v -340.877991 -681.639038 21.301220
v -312.476349 -678.271790 21.301220
v -284.074738 -668.169861 21.301220
v -454.484528 270.799805 21.301220
v -428.935242 291.104767 21.301220
v -407.783142 254.893433 21.301220
v -376.014191 257.827118 21.301220
v -334.143402 275.971069 21.301220
v -307.564362 452.026215 21.301220
v -284.074738 437.249207 21.301220
v -454.484528 270.799805 -21.301220
v -428.935242 291.104767 -21.301220
v -407.783142 254.893433 -21.301220
v -376.014191 257.827118 -21.301220
v -334.143402 275.971069 -21.301220
v -307.564362 452.026215 -21.301220
v -284.074738 437.249207 -21.301220
v -454.484528 -668.169861 -21.301220
v -426.082886 -678.271790 -21.301220
v -397.681274 -681.639038 -21.301220
v -369.279633 -681.639038 -21.301220
v -340.877991 -681.639038 -21.301220
v -312.476349 -678.271790 -21.301220
v -284.074738 -668.169861 -21.301220
vt 0.132127 0.827820
vt 0.009516 0.827884
vt 0.009501 0.798214
vt 0.132112 0.798150
vt 0.866271 0.946145
vt 0.866285 0.975815
vt 0.096434 0.976184
vt 0.096420 0.946514
vt 0.086128 0.946519
vt 0.086143 0.976189
vt 0.866200 0.797796
vt 0.866214 0.827466
vt 0.212284 0.827779
vt 0.212269 0.798109
vt 0.198143 0.827786
vt 0.198128 0.798116
vt 0.183412 0.827794
vt 0.161287 0.827805
vt 0.161272 0.798135
vt 0.183397 0.798124
vt 0.885979 0.797786
vt 0.885994 0.827456
vt 0.905759 0.797777
vt 0.905773 0.827447
vt 0.925539 0.797768
vt 0.925553 0.827437
vt 0.945319 0.797758
vt 0.945333 0.827428
vt 0.965099 0.797749
vt 0.965113 0.827418
vt 0.984879 0.797739
vt 0.984893 0.827409
vt 0.873259 0.847242
vt 0.198151 0.845579
vt 0.875613 0.867021
vt 0.223377 0.860298
vt 0.875623 0.886801
vt 0.221344 0.882424
vt 0.875632 0.906581
vt 0.208722 0.911591
vt 0.873296 0.926362
vt 0.086120 0.930160
vt 0.198120 0.780323
vt 0.873225 0.778013
vt 0.223332 0.765580
vt 0.875561 0.758232
vt 0.221278 0.743456
vt 0.875552 0.738452
vt 0.208628 0.714302
vt 0.875542 0.718672
vt 0.086008 0.695850
vt 0.873188 0.698893
vt 0.096291 0.679486
vt 0.866143 0.679117
vn -0.000000 0.000000 1.000000
vn 0.000000 0.000000 1.000000
vn -0.000000 0.000000 1.000000
vn -0.000000 0.000000 1.000000
vn -0.000000 0.000000 1.000000
vn 0.000000 0.000000 1.000000
vn -0.000000 0.000000 1.000000
vn -0.000000 0.000000 1.000000
vn 0.000000 0.000000 1.000000
vn 0.000000 0.000000 1.000000
vn 0.000000 0.000000 1.000000
vn 0.000000 0.000000 1.000000
vn 0.000000 0.000000 1.000000
vn 0.000000 0.000000 1.000000
vn -0.622179 0.782875 0.000000
vn 0.322410 0.946600 0.000000
vn 0.322410 0.946600 0.000000
vn -0.622179 0.782875 0.000000
vn 0.532320 0.846543 0.000000
vn 0.532320 0.846543 0.000000
vn -0.275176 0.961394 0.000000
vn -0.275176 0.961394 0.000000
vn -0.943129 0.332427 0.000000
vn -0.943129 0.332427 0.000000
vn -0.955036 0.296490 0.000000
vn -0.955036 0.296490 0.000000
vn 0.532484 0.846440 0.000000
vn 0.532484 0.846440 0.000000
vn -0.000000 0.000000 -1.000000
vn -0.000000 0.000000 -1.000000
vn 0.000000 0.000000 -1.000000
vn -0.000000 0.000000 -1.000000
vn 0.000000 0.000000 -1.000000
vn -0.000000 0.000000 -1.000000
vn -0.000000 0.000000 -1.000000
vn -0.000000 0.000000 -1.000000
vn 0.000000 0.000000 -1.000000
vn 0.000000 0.000000 -1.000000
vn 0.000000 0.000000 -1.000000
vn 0.000000 0.000000 -1.000000
vn 0.000000 0.000000 -1.000000
vn 0.000000 0.000000 -1.000000
vn -0.335114 -0.942177 0.000000
vn -0.230722 -0.973020 0.000000
vn -0.230722 -0.973020 0.000000
vn -0.335114 -0.942177 0.000000
vn -0.059175 -0.998248 0.000000
vn -0.059175 -0.998248 0.000000
vn 0.000000 -1.000000 0.000000
vn 0.000000 -1.000000 0.000000
vn 0.059175 -0.998248 0.000000
vn 0.059175 -0.998248 0.000000
vn 0.230722 -0.973020 0.000000
vn 0.230722 -0.973020 0.000000
vn 0.335115 -0.942177 0.000000
vn 0.335115 -0.942177 0.000000
vn 1.000000 0.000000 0.000000
vn 1.000000 0.000000 0.000000
vn 1.000000 0.000000 0.000000
vn 1.000000 0.000000 0.000000
vn -1.000000 0.000000 0.000000
vn -1.000000 0.000000 0.000000
vn -1.000000 0.000000 0.000000
vn -1.000000 0.000000 0.000000
s 1
g polySurface4 pCube6
usemtl texturedFacets1
f 1/12/1 2/33/2 9/34/3 8/13/4
f 2/33/2 3/35/5 10/36/6 9/34/3
f 3/35/5 4/37/7 11/38/8 10/36/6
f 4/37/7 5/39/9 12/40/10 11/38/8
f 5/39/9 6/41/11 13/42/12 12/40/10
f 6/41/11 7/5/13 14/8/14 13/42/12
s 2
f 8/13/15 9/15/16 16/16/17 15/14/18
f 9/15/16 10/17/19 17/20/20 16/16/17
f 10/17/19 11/18/21 18/19/22 17/20/20
f 11/18/21 12/1/23 19/4/24 18/19/22
f 12/1/23 13/2/25 20/3/26 19/4/24
f 13/9/25 14/8/27 21/7/28 20/10/26
s 3
f 15/14/29 16/43/30 23/44/31 22/11/32
f 16/43/30 17/45/33 24/46/34 23/44/31
f 17/45/33 18/47/35 25/48/36 24/46/34
f 18/47/35 19/49/37 26/50/38 25/48/36
f 19/49/37 20/51/39 27/52/40 26/50/38
f 20/51/39 21/53/41 28/54/42 27/52/40
s 4
f 22/11/43 23/21/44 2/22/45 1/12/46
f 23/21/44 24/23/47 3/24/48 2/22/45
f 24/23/47 25/25/49 4/26/50 3/24/48
f 25/25/49 26/27/51 5/28/52 4/26/50
f 26/27/51 27/29/53 6/30/54 5/28/52
f 27/29/53 28/31/55 7/32/56 6/30/54
s off
f 7/5/57 28/6/58 21/7/59 14/8/60
f 22/11/61 1/12/62 8/13/63 15/14/64
