# This file uses meters as units for non-parametric coordinates.

mtllib M_Plank_ShortSet_03.mtl
g default
v 372.716949 -661.135425 21.301220
v 394.018158 -668.522632 21.301220
v 415.319427 -676.802783 21.301220
v 436.620636 -676.802783 21.301220
v 457.921844 -676.802783 21.301220
v 479.223053 -676.802783 21.301220
v 500.524292 -676.802783 21.301220
v 521.825500 -668.522632 21.301220
v 543.126709 -661.135425 21.301220
v 372.716949 580.290234 21.301220
v 394.018158 582.648633 21.301220
v 415.319427 623.615735 21.301220
v 436.620636 623.615735 21.301220
v 457.921844 623.615735 21.301220
v 479.223053 653.788342 21.301220
v 500.524292 653.788342 21.301220
v 521.825500 575.105481 21.301220
v 543.126709 567.718396 21.301220
v 372.716949 580.290234 -21.301220
v 394.018158 582.648633 -21.301220
v 415.319427 623.615735 -21.301220
v 436.620636 623.615735 -21.301220
v 457.921844 623.615735 -21.301220
v 479.223053 653.788342 -21.301220
v 500.524292 653.788342 -21.301220
v 521.825500 575.105481 -21.301220
v 543.126709 567.718396 -21.301220
v 372.716949 -661.135425 -21.301220
v 394.018158 -668.522632 -21.301220
v 415.319427 -676.802783 -21.301220
v 436.620636 -676.802783 -21.301220
v 457.921844 -676.802783 -21.301220
v 479.223053 -676.802783 -21.301220
v 500.524292 -676.802783 -21.301220
v 521.825500 -668.522632 -21.301220
v 543.126709 -661.135425 -21.301220
vt 0.128544 0.182883
vt 0.103818 0.182813
vt 0.103889 0.157099
vt 0.128617 0.157169
vt 0.052390 0.182671
vt 0.004899 0.182543
vt 0.004968 0.156829
vt 0.052460 0.156957
vt 0.891137 0.030743
vt 0.891065 0.056457
vt 0.149351 0.054370
vt 0.149424 0.028656
vt 0.890776 0.159313
vt 0.890703 0.185027
vt 0.141401 0.182919
vt 0.141474 0.157205
vt 0.090961 0.182777
vt 0.091032 0.157063
vt 0.078104 0.182742
vt 0.078175 0.157028
vt 0.065247 0.182706
vt 0.065318 0.156992
vt 0.136567 0.028620
vt 0.136494 0.054334
vt 0.903633 0.159349
vt 0.903560 0.185064
vt 0.916490 0.159386
vt 0.916417 0.185100
vt 0.929347 0.159422
vt 0.929274 0.185136
vt 0.942204 0.159458
vt 0.942131 0.185172
vt 0.955061 0.159494
vt 0.954988 0.185208
vt 0.967918 0.159530
vt 0.967845 0.185245
vt 0.980775 0.159567
vt 0.980702 0.185281
vt 0.993632 0.159603
vt 0.993559 0.185317
vt 0.895126 0.197897
vt 0.139942 0.195772
vt 0.900087 0.210768
vt 0.115178 0.208559
vt 0.900051 0.223625
vt 0.115142 0.221416
vt 0.900015 0.236482
vt 0.115106 0.234273
vt 0.899979 0.249339
vt 0.096858 0.247079
vt 0.899943 0.262196
vt 0.096822 0.259936
vt 0.894909 0.275039
vt 0.144277 0.272927
vt 0.890414 0.287883
vt 0.148700 0.285796
vt 0.140086 0.144344
vt 0.895271 0.146469
vt 0.115395 0.131417
vt 0.900304 0.133626
vt 0.115432 0.118560
vt 0.900341 0.120769
vt 0.115468 0.105703
vt 0.900377 0.107912
vt 0.097292 0.092795
vt 0.900413 0.095055
vt 0.097329 0.079938
vt 0.900449 0.082198
vt 0.144856 0.067214
vt 0.895488 0.069327
vn 0.000000 0.000000 1.000000
vn 0.000000 0.000000 1.000000
vn 0.000000 0.000000 1.000000
vn 0.000000 0.000000 1.000000
vn 0.000000 0.000000 1.000000
vn 0.000000 0.000000 1.000000
vn 0.000000 0.000000 1.000000
vn 0.000000 0.000000 1.000000
vn 0.000000 0.000000 1.000000
vn 0.000000 0.000000 1.000000
vn 0.000000 0.000000 1.000000
vn 0.000000 0.000000 1.000000
vn -0.000000 0.000000 1.000000
vn -0.000000 0.000000 1.000000
vn -0.000000 0.000000 1.000000
vn -0.000000 0.000000 1.000000
vn 0.000000 0.000000 1.000000
vn 0.000000 0.000000 1.000000
vn -0.110044 0.993927 0.000000
vn -0.713031 0.701132 0.000000
vn -0.713031 0.701132 0.000000
vn -0.110044 0.993927 0.000000
vn -0.693137 0.720806 0.000000
vn -0.693137 0.720806 0.000000
vn 0.000000 1.000000 0.000000
vn 0.000000 1.000000 0.000000
vn -0.577965 0.816062 0.000000
vn -0.577965 0.816062 0.000000
vn -0.577965 0.816062 0.000000
vn -0.577965 0.816062 0.000000
vn 0.879374 0.476132 0.000000
vn 0.879374 0.476132 0.000000
vn 0.896222 0.443607 0.000000
vn 0.896222 0.443607 0.000000
vn 0.327649 0.944800 0.000000
vn 0.327649 0.944800 0.000000
vn 0.000000 0.000000 -1.000000
vn 0.000000 0.000000 -1.000000
vn 0.000000 0.000000 -1.000000
vn 0.000000 0.000000 -1.000000
vn 0.000000 0.000000 -1.000000
vn 0.000000 0.000000 -1.000000
vn 0.000000 0.000000 -1.000000
vn 0.000000 0.000000 -1.000000
vn 0.000000 0.000000 -1.000000
vn 0.000000 0.000000 -1.000000
vn 0.000000 0.000000 -1.000000
vn 0.000000 0.000000 -1.000000
vn -0.000000 0.000000 -1.000000
vn -0.000000 0.000000 -1.000000
vn -0.000000 0.000000 -1.000000
vn -0.000000 0.000000 -1.000000
vn 0.000000 0.000000 -1.000000
vn 0.000000 0.000000 -1.000000
vn -0.327654 -0.944798 0.000000
vn -0.345157 -0.938545 0.000000
vn -0.345157 -0.938545 0.000000
vn -0.327654 -0.944798 0.000000
vn -0.190788 -0.981631 0.000000
vn -0.190788 -0.981631 0.000000
vn 0.000000 -1.000000 0.000000
vn 0.000000 -1.000000 0.000000
vn 0.000000 -1.000000 0.000000
vn 0.000000 -1.000000 0.000000
vn 0.000000 -1.000000 0.000000
vn 0.000000 -1.000000 0.000000
vn 0.190789 -0.981631 0.000000
vn 0.190789 -0.981631 0.000000
vn 0.345157 -0.938545 0.000000
vn 0.345157 -0.938545 0.000000
vn 0.327653 -0.944798 0.000000
vn 0.327653 -0.944798 0.000000
vn 1.000000 0.000000 0.000000
vn 1.000000 0.000000 0.000000
vn 1.000000 0.000000 0.000000
vn 1.000000 0.000000 0.000000
vn -1.000000 0.000000 0.000000
vn -1.000000 0.000000 0.000000
vn -1.000000 0.000000 0.000000
vn -1.000000 0.000000 0.000000
s 1
g polySurface6 pCube6
usemtl texturedFacets3
f 1/14/1 2/41/2 11/42/3 10/15/4
f 2/41/2 3/43/5 12/44/6 11/42/3
f 3/43/5 4/45/7 13/46/8 12/44/6
f 4/45/7 5/47/9 14/48/10 13/46/8
f 5/47/9 6/49/11 15/50/12 14/48/10
f 6/49/11 7/51/13 16/52/14 15/50/12
f 7/51/13 8/53/15 17/54/16 16/52/14
f 8/53/15 9/55/17 18/56/18 17/54/16
s 2
f 10/15/19 11/1/20 20/4/21 19/16/22
f 11/1/20 12/2/23 21/3/24 20/4/21
f 12/2/23 13/17/25 22/18/26 21/3/24
f 13/17/25 14/19/27 23/20/28 22/18/26
f 14/19/27 15/21/29 24/22/30 23/20/28
f 15/21/29 16/5/31 25/8/32 24/22/30
f 16/5/31 17/6/33 26/7/34 25/8/32
f 17/23/33 18/12/35 27/11/36 26/24/34
s 3
f 19/16/37 20/57/38 29/58/39 28/13/40
f 20/57/38 21/59/41 30/60/42 29/58/39
f 21/59/41 22/61/43 31/62/44 30/60/42
f 22/61/43 23/63/45 32/64/46 31/62/44
f 23/63/45 24/65/47 33/66/48 32/64/46
f 24/65/47 25/67/49 34/68/50 33/66/48
f 25/67/49 26/69/51 35/70/52 34/68/50
f 26/69/51 27/11/53 36/10/54 35/70/52
s 4
f 28/13/55 29/25/56 2/26/57 1/14/58
f 29/25/56 30/27/59 3/28/60 2/26/57
f 30/27/59 31/29/61 4/30/62 3/28/60
f 31/29/61 32/31/63 5/32/64 4/30/62
f 32/31/63 33/33/65 6/34/66 5/32/64
f 33/33/65 34/35/67 7/36/68 6/34/66
f 34/35/67 35/37/69 8/38/70 7/36/68
f 35/37/69 36/39/71 9/40/72 8/38/70
s off
f 9/9/73 36/10/74 27/11/75 18/12/76
f 28/13/77 1/14/78 10/15/79 19/16/80
