# This file uses centimeters as units for non-parametric coordinates.

v -4.409590 0.000000 1.366402
v 3.409590 0.000000 1.106231
v -4.000000 0.514486 1.144859
v 3.000000 0.514486 0.926871
v -4.000000 0.514486 -1.144859
v 3.000000 0.514486 -0.926871
v -4.409590 0.000000 -1.366402
v 3.409590 0.000000 -1.106231
v -2.336942 0.514486 2.000000
v -2.336942 0.514486 -2.000000
v -2.551912 0.000000 -2.387022
v -2.551912 0.000000 2.387022
v 1.515954 0.514486 1.350591
v 1.515954 0.514486 -1.350591
v 1.751873 0.000000 -1.611946
v 1.751873 0.000000 1.611946
v -0.178472 0.514486 1.812811
v -0.178472 0.514486 -1.812811
v -0.140845 0.000000 -2.163609
v -0.140845 0.000000 2.163609
v 1.601633 1.488726 0.535757
v 1.601633 0.204165 0.296518
v 2.802867 0.871395 0.296518
v 2.909562 0.204165 0.056626
v 2.802867 0.871395 -0.296518
v 2.909562 0.204165 -0.056626
v 1.601633 1.488726 -0.535757
v 1.601633 0.204165 -0.296518
v -4.055391 1.846826 -1.009925
v -3.764451 2.976113 -1.009925
v -3.618979 3.540756 -0.000000
v -3.764451 2.976113 1.009925
v -4.055391 1.846827 1.009925
v -4.200864 1.282183 0.000000
v 2.205368 0.722018 -0.191125
v 2.260428 0.935732 -0.191125
v 2.287958 1.042588 -0.000000
v 2.260428 0.935732 0.191125
v 2.205369 0.722018 0.191125
v 2.177839 0.615161 0.000000
v -3.788926 2.094414 -0.479504
v -3.650788 2.630590 -0.479504
v -3.719858 2.362502 0.000000
v -3.581721 2.898678 -0.000000
v -3.650788 2.630590 0.479504
v -3.788926 2.094415 0.479504
v -3.857993 1.826327 0.000000
vt 0.648487 0.679799
vt 0.565055 0.529491
vt 0.612533 0.497697
vt 0.675665 0.619221
vt 0.907841 0.497697
vt 0.844708 0.619221
vt 0.955319 0.529491
vt 0.871886 0.679799
vt 0.669756 0.047135
vt 0.850618 0.047135
vt 0.828615 0.107713
vt 0.691759 0.107713
vt 0.626353 0.339972
vt 0.894021 0.339972
vt 0.937056 0.334407
vt 0.583318 0.334407
vt 0.660477 0.216156
vt 0.859897 0.216156
vt 0.891959 0.181264
vt 0.628415 0.181264
vt 0.201218 0.444459
vt 0.201218 0.344603
vt 0.307106 0.244474
vt 0.298469 0.344603
vt 0.135806 0.121117
vt 0.060412 0.094848
vt 0.060412 0.082446
vt 0.135806 0.056177
vt 0.160507 0.329168
vt 0.169145 0.429297
vt 0.063257 0.329168
vt 0.063257 0.229311
vt 0.195369 0.233789
vt 0.050219 0.209688
vt 0.050219 0.149943
vt 0.195369 0.125841
vt 0.219477 0.233789
vt 0.219477 0.125841
vt 0.355211 0.149943
vt 0.355211 0.209688
vt 0.511817 0.894266
vt 0.425602 0.913625
vt 0.354534 0.432774
vt 0.370826 0.429120
vt 0.337465 0.920106
vt 0.337212 0.434109
vt 0.249348 0.913581
vt 0.320560 0.432886
vt 0.163159 0.894194
vt 0.304271 0.429228
vt 0.080762 0.862373
vt 0.288698 0.423216
vt 0.594244 0.862463
vt 0.386405 0.423108
vt 0.841518 0.854598
vt 0.811389 0.908830
vt 0.779729 0.855912
vt 0.809260 0.801374
vt 0.747020 0.803253
vt 0.717973 0.858317
vt 0.751181 0.910665
vt 0.914428 0.853438
vt 0.847426 0.970806
vt 0.844210 0.737004
vt 0.708094 0.741218
vt 0.645011 0.861723
vt 0.719256 0.975061
vn -0.655562 0.681498 0.325267
vn -0.171467 0.619642 0.765926
vn -0.025632 0.984359 0.174298
vn -0.229721 0.965820 0.120087
vn -0.025632 0.984359 -0.174298
vn -0.229721 0.965820 -0.120087
vn -0.171467 0.619642 -0.765926
vn -0.655562 0.681498 -0.325267
vn 0.664411 0.660948 0.348863
vn 0.664411 0.660948 -0.348863
vn 0.260508 0.948069 -0.182482
vn 0.260508 0.948069 0.182482
vn 0.025851 0.988932 0.146097
vn 0.025851 0.988932 -0.146097
vn 0.140120 0.561311 -0.815657
vn 0.140120 0.561311 0.815657
vn 0.048741 0.984344 0.169385
vn 0.048741 0.984344 -0.169385
vn 0.237219 0.523325 -0.818449
vn 0.237219 0.523325 0.818449
vn 0.127679 -0.229865 0.964811
vn 0.127679 -0.229865 0.964811
vn 0.127679 -0.229865 0.964811
vn 0.127679 -0.229865 0.964811
vn 0.987455 0.157902 0.000000
vn 0.987455 0.157902 0.000000
vn 0.987455 0.157902 0.000000
vn 0.987455 0.157902 0.000000
vn 0.127679 -0.229865 -0.964811
vn 0.127679 -0.229865 -0.964811
vn 0.127679 -0.229865 -0.964811
vn 0.127679 -0.229865 -0.964811
vn -1.000000 0.000000 0.000000
vn -1.000000 0.000000 0.000000
vn -1.000000 0.000000 0.000000
vn -1.000000 0.000000 0.000000
vn 0.457086 0.889422 0.000000
vn 0.457086 0.889422 0.000000
vn 0.457086 0.889422 0.000000
vn 0.457086 0.889422 0.000000
vn 0.019377 -0.515678 -0.856564
vn 0.266138 0.442119 -0.856564
vn 0.266138 0.442119 -0.856564
vn 0.019377 -0.515678 -0.856563
vn 0.389518 0.921019 -0.000000
vn 0.389518 0.921019 -0.000000
vn 0.266138 0.442120 0.856563
vn 0.266137 0.442119 0.856564
vn 0.019377 -0.515678 0.856564
vn 0.019377 -0.515678 0.856564
vn -0.104003 -0.994577 0.000000
vn -0.104003 -0.994577 0.000001
vn -0.966242 0.110053 0.232947
vn -0.899135 0.370530 0.232947
vn -0.968378 0.249486 -0.000000
vn -0.999796 -0.020186 0.000000
vn -0.966242 0.110053 -0.232946
vn -0.899135 0.370531 -0.232947
vn -0.865581 0.500769 -0.000000
vn -0.960253 0.089827 0.264283
vn -0.884118 0.385344 0.264283
vn -0.998321 -0.057931 0.000000
vn -0.960253 0.089827 -0.264282
vn -0.884118 0.385345 -0.264283
vn -0.846050 0.533103 -0.000000
s 1
f 1/1/1 12/2/2 9/3/3 3/4/4
f 3/4/4 9/3/3 10/5/5 5/6/6
f 5/6/6 10/5/5 11/7/7 7/8/8
f 2/9/9 8/10/10 6/11/11 4/12/12
f 7/8/8 1/1/1 3/4/4 5/6/6
f 9/3/3 17/13/13 18/14/14 10/5/5
f 11/7/7 10/5/5 18/14/14 19/15/15
f 9/3/3 12/2/2 20/16/16 17/13/13
f 13/17/17 4/12/12 6/11/11 14/18/18
f 15/19/19 14/18/18 6/11/11 8/10/10
f 13/17/17 16/20/20 2/9/9 4/12/12
f 17/13/13 13/17/17 14/18/18 18/14/14
f 19/15/15 18/14/14 14/18/18 15/19/19
f 17/13/13 20/16/16 16/20/20 13/17/17
s off
f 21/21/21 22/22/22 24/23/23 23/24/24
f 23/25/25 24/26/26 26/27/27 25/28/28
f 25/29/29 26/30/30 28/31/31 27/32/32
f 27/33/33 28/34/34 22/35/35 21/36/36
f 27/37/37 21/38/38 23/39/39 25/40/40
s 3
f 29/41/41 30/42/42 36/43/43 35/44/44
f 30/42/42 31/45/45 37/46/46 36/43/43
f 31/45/45 32/47/47 38/48/48 37/46/46
f 32/47/47 33/49/49 39/50/50 38/48/48
f 33/49/49 34/51/51 40/52/52 39/50/50
f 34/53/51 29/41/41 35/44/44 40/54/52
s 4
f 42/55/53 41/56/54 43/57/55
f 44/58/56 42/55/53 43/57/55
f 45/59/57 44/58/56 43/57/55
f 46/60/58 45/59/57 43/57/55
f 47/61/59 46/60/58 43/57/55
f 41/56/54 47/61/59 43/57/55
f 30/62/60 29/63/61 41/56/54 42/55/53
f 31/64/62 30/62/60 42/55/53 44/58/56
f 32/65/63 31/64/62 44/58/56 45/59/57
f 33/66/64 32/65/63 45/59/57 46/60/58
f 34/67/65 33/66/64 46/60/58 47/61/59
f 29/63/61 34/67/65 47/61/59 41/56/54
