# This file uses centimeters as units for non-parametric coordinates.

v -139.614685 -19.902878 143.324005
v 139.614685 -19.902878 -143.324005
v -139.614685 19.409214 143.324005
v 139.614685 19.409214 -143.324005
v -139.532074 20.230312 51.913387
v 50.841152 19.851362 -142.628601
v -139.532074 -19.081779 51.913387
v 50.841152 -19.460732 -142.628601
v -45.405708 19.409214 128.005676
v -45.405708 -19.902878 128.005676
v -77.037422 -19.902878 46.606705
v -77.037422 19.409214 46.606705
v 31.241623 19.054876 88.386932
v 32.118164 -20.230312 87.226677
v -30.374680 -19.548540 22.850983
v -31.251221 19.736649 24.011246
v 85.676338 19.409214 37.915089
v 85.676338 -19.902878 37.915089
v 12.081673 -19.902878 -17.357346
v 12.081673 19.409214 -17.357346
v 122.398750 19.409214 -36.902519
v 122.398750 -19.902878 -36.902519
v 38.511890 -19.902878 -70.035820
v 38.511890 19.409214 -70.035820
vt 0.145668 0.984905
vt 0.089496 0.984905
vt 0.089496 0.962296
vt 0.145668 0.962296
vt 0.138770 0.951611
vt 0.082599 0.951611
vt 0.082599 0.929002
vt 0.138771 0.929002
vt 0.360831 0.987391
vt 0.163886 0.987391
vt 0.163886 0.951152
vt 0.360831 0.951152
vt 0.835199 0.945240
vt 0.637676 0.945240
vt 0.637676 0.909000
vt 0.835199 0.909000
vt 0.804140 0.983030
vt 0.635019 0.983030
vt 0.635019 0.968444
vt 0.804140 0.968444
vt 0.367030 0.941415
vt 0.170085 0.941415
vt 0.170085 0.926829
vt 0.367030 0.926829
vt 0.770316 0.968444
vt 0.321442 0.987391
vt 0.770316 0.983030
vt 0.795694 0.909000
vt 0.327641 0.926829
vt 0.795694 0.945240
vt 0.321442 0.951152
vt 0.327641 0.941415
vt 0.736492 0.968444
vt 0.282053 0.987391
vt 0.736492 0.983030
vt 0.756189 0.909000
vt 0.288252 0.926829
vt 0.756190 0.945240
vt 0.282053 0.951152
vt 0.288252 0.941415
vt 0.702668 0.968444
vt 0.242664 0.987391
vt 0.702668 0.983030
vt 0.716685 0.909000
vt 0.248863 0.926829
vt 0.716685 0.945240
vt 0.242664 0.951151
vt 0.248863 0.941415
vt 0.668843 0.968444
vt 0.203275 0.987391
vt 0.668843 0.983030
vt 0.677180 0.909000
vt 0.209474 0.926829
vt 0.677180 0.945240
vt 0.203275 0.951151
vt 0.209474 0.941415
vn 0.958455 0.000000 0.285245
vn 0.958455 0.000000 0.285245
vn 0.999993 0.000000 0.003769
vn 0.999993 0.000000 0.003769
vn 0.001161 0.999998 0.001602
vn 0.001078 0.999998 0.001488
vn 0.000000 1.000000 0.000000
vn 0.000000 1.000000 0.000000
vn -0.955235 0.000000 -0.295850
vn -0.955401 0.000000 -0.295311
vn -0.999993 0.000000 -0.003769
vn -0.999993 0.000000 -0.003769
vn -0.001078 -0.999998 -0.001488
vn -0.001161 -0.999998 -0.001602
vn 0.000000 -1.000000 0.000000
vn 0.000000 -1.000000 0.000000
vn 0.003769 0.000000 -0.999993
vn 0.003769 0.000000 -0.999993
vn 0.003769 0.000000 -0.999993
vn 0.003769 0.000000 -0.999993
vn -0.003769 0.000000 0.999993
vn -0.003769 0.000000 0.999993
vn -0.003769 0.000000 0.999993
vn -0.003769 0.000000 0.999993
vn 0.999993 0.000000 0.003769
vn 0.999993 0.000000 0.003769
vn 0.308449 -0.003834 0.951233
vn 0.308067 -0.003824 0.951357
vn 0.000000 -1.000000 0.000000
vn 0.000000 -1.000000 0.000000
vn -0.003938 -0.999986 -0.003662
vn -0.003763 -0.999986 -0.003658
vn -0.999993 0.000000 -0.003769
vn -0.999993 0.000000 -0.003769
vn -0.253039 0.003762 -0.967449
vn -0.253801 0.003779 -0.967249
vn 0.000000 1.000000 0.000000
vn 0.000000 1.000000 0.000000
vn 0.003920 0.999986 0.003566
vn 0.004094 0.999985 0.003580
vn 0.568807 -0.005798 0.822451
vn 0.564003 -0.005900 0.825752
vn -0.002132 -0.999993 -0.003159
vn -0.002238 -0.999993 -0.003060
vn -0.580436 0.005547 -0.814287
vn -0.585709 0.005433 -0.810504
vn 0.002235 0.999993 0.003130
vn 0.002184 0.999993 0.003181
vn 0.808532 -0.001563 0.588450
vn 0.808854 -0.001558 0.588007
vn -0.001298 -0.999998 -0.001249
vn -0.001305 -0.999998 -0.001255
vn -0.803023 0.001535 -0.595946
vn -0.803405 0.001529 -0.595431
vn 0.001195 0.999998 0.001415
vn 0.001186 0.999998 0.001404
s 1
f 21/49/1 22/51/2 2/18/3 4/19/4
s 2
f 24/55/5 21/50/6 4/10/7 6/11/8
s 3
f 23/53/9 24/56/10 6/22/11 8/23/12
s 4
f 22/52/13 23/54/14 8/14/15 2/15/16
s off
f 4/4/17 2/1/18 8/2/19 6/3/20
f 5/8/21 7/5/22 1/6/23 3/7/24
s 1
f 3/20/25 1/17/26 10/27/27 9/25/28
s 4
f 1/16/29 7/13/30 11/30/31 10/28/32
s 3
f 7/24/33 5/21/34 12/32/35 11/29/36
s 2
f 5/12/37 3/9/38 9/26/39 12/31/40
s 1
f 9/25/28 10/27/27 14/35/41 13/33/42
s 4
f 10/28/32 11/30/31 15/38/43 14/36/44
s 3
f 11/29/36 12/32/35 16/40/45 15/37/46
s 2
f 12/31/40 9/26/39 13/34/47 16/39/48
s 1
f 13/33/42 14/35/41 18/43/49 17/41/50
s 4
f 14/36/44 15/38/43 19/46/51 18/44/52
s 3
f 15/37/46 16/40/45 20/48/53 19/45/54
s 2
f 16/39/48 13/34/47 17/42/55 20/47/56
s 1
f 17/41/50 18/43/49 22/51/2 21/49/1
s 4
f 18/44/52 19/46/51 23/54/14 22/52/13
s 3
f 19/45/54 20/48/53 24/56/10 23/53/9
s 2
f 20/47/56 17/42/55 21/50/6 24/55/5
