# This file uses centimeters as units for non-parametric coordinates.

mtllib M_DoorWay  2-3_LeftDoor.mtl
g default
v -0.027284 3.495131 3.104799
v -0.319141 3.446187 3.104799
v -0.597909 3.304148 3.104799
v -0.819141 3.082916 3.104799
v -0.961181 2.804147 3.104799
v -1.010124 2.495130 3.104799
v -0.027284 3.495131 3.354799
v -0.319141 3.446187 3.354799
v -0.597909 3.304148 3.354799
v -0.819141 3.082916 3.354799
v -0.961181 2.804147 3.354799
v -1.010124 2.495130 3.354799
v -0.027284 2.495130 3.104799
v -0.027284 2.495130 3.354799
v -0.027284 0.284078 3.104799
v -1.010124 0.284078 3.104799
v -0.027284 0.284078 3.354799
v -1.010124 0.284078 3.354799
v -0.244197 1.705068 3.354799
v -0.077839 1.705068 3.354799
v -0.244197 1.115558 3.354799
v -0.077839 1.115558 3.354799
v -0.239665 1.689011 3.403100
v -0.082370 1.689011 3.403100
v -0.239665 1.131615 3.403100
v -0.082370 1.131615 3.403100
v -0.159720 1.286143 3.335673
v -0.159720 1.314790 3.423841
v -0.159720 1.364932 3.459605
v -0.159720 1.529852 3.499757
v -0.159720 1.557495 3.490300
v -0.159720 1.586143 3.335673
v -0.130330 1.276594 3.335673
v -0.130330 1.307065 3.429454
v -0.130330 1.357534 3.467151
v -0.130330 1.532953 3.509859
v -0.130330 1.565221 3.495913
v -0.130330 1.595692 3.335673
v -0.112167 1.251594 3.335673
v -0.112167 1.286839 3.444148
v -0.112167 1.338166 3.486906
v -0.112167 1.541072 3.536307
v -0.112167 1.585446 3.510608
v -0.112167 1.620692 3.335673
v -0.112167 1.220692 3.335673
v -0.112167 1.261840 3.462312
v -0.112167 1.314226 3.511326
v -0.112167 1.551108 3.568998
v -0.112167 1.610446 3.528771
v -0.112167 1.651594 3.335673
v -0.130330 1.195692 3.335673
v -0.130330 1.241614 3.477006
v -0.130330 1.294858 3.531081
v -0.130330 1.559226 3.595446
v -0.130330 1.630672 3.543466
v -0.130330 1.676594 3.335673
v -0.159720 1.186143 3.335673
v -0.159720 1.233889 3.482619
v -0.159720 1.287461 3.538627
v -0.159720 1.562328 3.605548
v -0.159720 1.638397 3.549079
v -0.159720 1.686143 3.335673
v -0.189109 1.195692 3.335673
v -0.189109 1.241614 3.477006
v -0.189109 1.294858 3.531081
v -0.189109 1.559226 3.595446
v -0.189109 1.630672 3.543466
v -0.189109 1.676594 3.335673
v -0.207273 1.220692 3.335673
v -0.207273 1.261840 3.462312
v -0.207273 1.314226 3.511326
v -0.207273 1.551108 3.568998
v -0.207273 1.610446 3.528771
v -0.207273 1.651594 3.335673
v -0.207273 1.251594 3.335673
v -0.207273 1.286839 3.444148
v -0.207273 1.338166 3.486906
v -0.207273 1.541072 3.536307
v -0.207273 1.585446 3.510608
v -0.207273 1.620692 3.335673
v -0.189109 1.276594 3.335673
v -0.189109 1.307065 3.429454
v -0.189109 1.357534 3.467151
v -0.189109 1.532953 3.509859
v -0.189109 1.565221 3.495913
v -0.189109 1.595692 3.335673
vt 0.659660 0.991182
vt 0.607554 0.981120
vt 0.620030 0.944543
vt 0.666296 0.952572
vt 0.552943 0.952043
vt 0.576136 0.921383
vt 0.512996 0.912095
vt 0.543655 0.888902
vt 0.481378 0.854584
vt 0.518982 0.845111
vt 0.475885 0.796261
vt 0.513749 0.795894
vt 0.751364 0.944929
vt 0.705629 0.952599
vt 0.705629 0.795896
vt 0.795048 0.922671
vt 0.829716 0.888004
vt 0.851974 0.844320
vt 0.859643 0.795896
vt 0.666454 0.795896
vt 0.512278 0.410248
vt 0.666292 0.410242
vt 0.666373 0.449418
vt 0.512199 0.449424
vt 0.705629 0.449418
vt 0.859643 0.449418
vt 0.219168 0.210553
vt 0.170607 0.210553
vt 0.170607 0.038473
vt 0.219168 0.038473
vt 0.472624 0.449798
vt 0.632463 0.672091
vt 0.658532 0.672091
vt 0.632463 0.579713
vt 0.658532 0.579713
vt 0.220567 0.225465
vt 0.169208 0.225465
vt 0.155695 0.215510
vt 0.155695 0.033516
vt 0.169208 0.023561
vt 0.220567 0.023561
vt 0.234080 0.033516
vt 0.234080 0.215510
vt 0.381305 0.193184
vt 0.368405 0.205142
vt 0.420370 0.225328
vt 0.421074 0.208341
vt 0.364507 0.169059
vt 0.348959 0.178856
vt 0.340848 0.088780
vt 0.323772 0.080818
vt 0.346652 0.074234
vt 0.332337 0.061378
vt 0.415758 0.059391
vt 0.419996 0.041951
vt 0.360236 0.216351
vt 0.418644 0.235329
vt 0.335903 0.187783
vt 0.308637 0.075789
vt 0.323297 0.051201
vt 0.418901 0.031939
vt 0.350334 0.230189
vt 0.418521 0.252345
vt 0.322425 0.200997
vt 0.290593 0.070250
vt 0.313381 0.037373
vt 0.418792 0.014911
vt 0.526801 0.376181
vt 0.524793 0.365520
vt 0.449484 0.393586
vt 0.453552 0.402152
vt 0.569108 0.332458
vt 0.558107 0.331209
vt 0.596684 0.175748
vt 0.588885 0.174930
vt 0.561062 0.121410
vt 0.559025 0.129641
vt 0.451193 0.086096
vt 0.446577 0.094586
vt 0.519791 0.353804
vt 0.442386 0.379897
vt 0.547601 0.326701
vt 0.581442 0.176583
vt 0.555037 0.137707
vt 0.439668 0.108484
vt 0.509206 0.342929
vt 0.438183 0.365197
vt 0.534483 0.318563
vt 0.567083 0.178871
vt 0.544167 0.147117
vt 0.436801 0.123500
vt 0.498943 0.335526
vt 0.434685 0.356405
vt 0.525243 0.308016
vt 0.555241 0.184803
vt 0.533766 0.153821
vt 0.434430 0.132653
vt 0.489611 0.322485
vt 0.434569 0.340369
vt 0.512542 0.295563
vt 0.538237 0.190023
vt 0.524422 0.166852
vt 0.434430 0.132653
vt 0.434327 0.148699
vt 0.390601 0.179025
vt 0.386242 0.184934
vt 0.420880 0.197209
vt 0.424055 0.191537
vt 0.382192 0.158446
vt 0.373069 0.161061
vt 0.358522 0.090626
vt 0.350325 0.091587
vt 0.358280 0.083818
vt 0.355579 0.080585
vt 0.411855 0.077392
vt 0.410598 0.071069
vn -0.165387 0.986229 0.000000
vn -0.317386 0.948296 0.000000
vn -0.317386 0.948296 0.000000
vn -0.165387 0.986229 0.000000
vn -0.587785 0.809017 0.000000
vn -0.587785 0.809017 0.000000
vn -0.809017 0.587785 0.000000
vn -0.809017 0.587785 0.000000
vn -0.951057 0.309017 0.000000
vn -0.951057 0.309017 0.000000
vn -0.987688 0.156434 0.000000
vn -0.987688 0.156434 0.000000
vn 0.000000 0.000000 -1.000000
vn 0.000000 0.000000 -1.000000
vn 0.000000 0.000000 -1.000000
vn 0.000000 0.000000 -1.000000
vn 0.000000 0.000000 -1.000000
vn 0.000000 0.000000 -1.000000
vn 0.000000 0.000000 -1.000000
vn 0.000000 0.000000 1.000000
vn 0.000000 0.000000 1.000000
vn 0.000000 0.000000 1.000000
vn 0.000000 0.000000 1.000000
vn 0.000000 0.000000 1.000000
vn 0.000000 0.000000 1.000000
vn 0.000000 0.000000 1.000000
vn 0.000000 -1.000000 0.000000
vn 0.000000 -1.000000 0.000000
vn 0.000000 -1.000000 0.000000
vn 0.000000 -1.000000 0.000000
vn 1.000000 0.000000 0.000000
vn 1.000000 0.000000 0.000000
vn 1.000000 0.000000 0.000000
vn 1.000000 0.000000 0.000000
vn 0.000000 0.000000 -1.000000
vn 0.000000 0.000000 -1.000000
vn 0.000000 0.000000 -1.000000
vn 0.000000 0.000000 -1.000000
vn 1.000000 0.000000 0.000000
vn 1.000000 0.000000 0.000000
vn 1.000000 0.000000 0.000000
vn 1.000000 0.000000 0.000000
vn 0.000000 0.000000 1.000000
vn 0.000000 0.000000 1.000000
vn 0.000000 0.000000 1.000000
vn 0.000000 0.000000 1.000000
vn -1.000000 0.000000 0.000000
vn -1.000000 0.000000 0.000000
vn -1.000000 0.000000 0.000000
vn -1.000000 0.000000 0.000000
vn 0.000000 0.000000 1.000000
vn 0.000000 0.000000 1.000000
vn 0.000000 0.000000 1.000000
vn 0.000000 0.000000 1.000000
vn -0.000000 0.000000 1.000000
vn -0.000000 0.000000 1.000000
vn -0.000000 0.000000 1.000000
vn -0.000000 0.000000 1.000000
vn 0.000000 0.000000 1.000000
vn 0.000000 0.000000 1.000000
vn 0.000000 0.000000 1.000000
vn 0.000000 0.000000 1.000000
vn -0.000003 0.000000 1.000000
vn -0.000003 0.000000 1.000000
vn -0.000003 0.000000 1.000000
vn -0.000003 0.000000 1.000000
vn 0.000000 0.948938 0.315462
vn 0.000000 0.948938 0.315462
vn 0.000000 0.948938 0.315462
vn 0.000000 0.948938 0.315462
vn -0.995628 0.000000 0.093403
vn -0.995628 0.000000 0.093403
vn -0.995628 0.000000 0.093403
vn -0.995628 0.000000 0.093403
vn 0.000000 -0.948938 0.315462
vn 0.000000 -0.948938 0.315462
vn 0.000000 -0.948938 0.315462
vn 0.000000 -0.948938 0.315462
vn 0.995628 0.000000 0.093403
vn 0.995628 0.000000 0.093403
vn 0.995628 0.000000 0.093403
vn 0.995628 0.000000 0.093403
vn -0.000000 0.847726 -0.530434
vn 0.634580 0.659748 -0.402544
vn 0.609223 0.754187 -0.245049
vn 0.000000 0.951057 -0.309016
vn -0.000000 0.324487 -0.945890
vn 0.624851 0.258711 -0.736634
vn 0.000000 0.154333 -0.988019
vn 0.639391 0.104832 -0.761702
vn 0.000001 -0.942105 -0.335319
vn 0.646625 -0.716154 -0.262676
vn 0.000000 -0.982827 -0.184532
vn 0.590721 -0.792503 -0.151618
vn 0.972036 0.201358 -0.120837
vn 0.970125 0.230733 -0.074970
vn 0.974687 0.082500 -0.207794
vn 0.980300 0.018167 -0.196680
vn 0.978092 -0.194527 -0.074126
vn 0.961943 -0.268144 -0.052574
vn 0.929077 -0.329297 0.168462
vn 0.916263 -0.380973 0.123786
vn 0.916211 -0.130960 0.378691
vn 0.912295 -0.025540 0.408736
vn 0.919048 0.361248 0.157639
vn 0.926108 0.368665 0.080070
vn 0.557983 -0.739212 0.377123
vn 0.527832 -0.807779 0.262463
vn 0.535511 -0.297290 0.790472
vn 0.536944 -0.029798 0.843091
vn 0.545864 0.763366 0.345405
vn 0.538770 0.822664 0.181521
vn -0.000000 -0.891573 0.452878
vn 0.000000 -0.951057 0.309017
vn 0.000000 -0.360135 0.932900
vn 0.000000 -0.026155 0.999658
vn 0.000000 0.908754 0.417332
vn 0.000000 0.976154 0.217081
vn -0.557983 -0.739212 0.377123
vn -0.527832 -0.807779 0.262463
vn -0.535511 -0.297290 0.790472
vn -0.536944 -0.029798 0.843091
vn -0.545864 0.763366 0.345405
vn -0.538770 0.822665 0.181521
vn -0.929077 -0.329298 0.168463
vn -0.916262 -0.380973 0.123786
vn -0.916211 -0.130961 0.378692
vn -0.912295 -0.025540 0.408735
vn -0.919048 0.361248 0.157638
vn -0.926107 0.368665 0.080070
vn -0.972036 0.201357 -0.120836
vn -0.970125 0.230731 -0.074969
vn -0.974688 0.082499 -0.207793
vn -0.980300 0.018167 -0.196679
vn -0.978092 -0.194527 -0.074126
vn -0.961943 -0.268143 -0.052574
vn -0.634581 0.659747 -0.402543
vn -0.609224 0.754186 -0.245050
vn -0.624852 0.258711 -0.736634
vn -0.639390 0.104832 -0.761703
vn -0.646625 -0.716155 -0.262677
vn -0.590720 -0.792503 -0.151618
s 1
g polySurface3
usemtl texturedFacets2
f 1/1/1 2/2/2 8/3/3 7/4/4
f 2/2/2 3/5/5 9/6/6 8/3/3
f 3/5/5 4/7/7 10/8/8 9/6/6
f 4/7/7 5/9/9 11/10/10 10/8/8
f 5/9/9 6/11/11 12/12/12 11/10/10
s 2
f 2/13/13 1/14/14 13/15/15
f 3/16/16 2/13/13 13/15/15
f 4/17/17 3/16/16 13/15/15
f 5/18/18 4/17/17 13/15/15
f 6/19/19 5/18/18 13/15/15
s 3
f 7/4/20 8/3/21 14/20/22
f 8/3/21 9/6/23 14/20/22
f 9/6/23 10/8/24 14/20/22
f 10/8/24 11/10/25 14/20/22
f 11/10/25 12/12/26 14/20/22
s off
f 16/21/27 15/22/28 17/23/29 18/24/30
f 7/4/31 14/20/32 13/15/33 1/14/34
f 6/19/35 13/15/36 15/25/37 16/26/38
f 13/15/39 14/20/40 17/23/41 15/25/42
f 24/27/43 23/28/44 25/29/45 26/30/46
f 12/12/47 6/11/48 16/31/49 18/24/50
f 14/20/51 12/12/52 19/32/53 20/33/54
f 12/12/55 18/24/56 21/34/57 19/32/58
f 18/24/59 17/23/60 22/35/61 21/34/62
f 17/23/63 14/20/64 20/33/65 22/35/66
f 20/36/67 19/37/68 23/28/69 24/27/70
f 19/38/71 21/39/72 25/29/73 23/28/74
f 21/40/75 22/41/76 26/30/77 25/29/78
f 22/42/79 20/43/80 24/27/81 26/30/82
s 4
usemtl texturedFacets1
f 28/44/83 34/45/84 33/46/85 27/47/86
f 29/48/87 35/49/88 34/45/84 28/44/83
f 30/50/89 36/51/90 35/49/88 29/48/87
f 31/52/91 37/53/92 36/51/90 30/50/89
f 32/54/93 38/55/94 37/53/92 31/52/91
f 34/45/84 40/56/95 39/57/96 33/46/85
f 35/49/88 41/58/97 40/56/95 34/45/84
f 36/51/90 42/59/98 41/58/97 35/49/88
f 37/53/92 43/60/99 42/59/98 36/51/90
f 38/55/94 44/61/100 43/60/99 37/53/92
f 40/56/95 46/62/101 45/63/102 39/57/96
f 41/58/97 47/64/103 46/62/101 40/56/95
f 42/59/98 48/65/104 47/64/103 41/58/97
f 43/60/99 49/66/105 48/65/104 42/59/98
f 44/61/100 50/67/106 49/66/105 43/60/99
f 46/68/101 52/69/107 51/70/108 45/71/102
f 47/72/103 53/73/109 52/69/107 46/68/101
f 48/74/104 54/75/110 53/73/109 47/72/103
f 49/76/105 55/77/111 54/75/110 48/74/104
f 50/78/106 56/79/112 55/77/111 49/76/105
f 52/69/107 58/80/113 57/81/114 51/70/108
f 53/73/109 59/82/115 58/80/113 52/69/107
f 54/75/110 60/83/116 59/82/115 53/73/109
f 55/77/111 61/84/117 60/83/116 54/75/110
f 56/79/112 62/85/118 61/84/117 55/77/111
f 58/80/113 64/86/119 63/87/120 57/81/114
f 59/82/115 65/88/121 64/86/119 58/80/113
f 60/83/116 66/89/122 65/88/121 59/82/115
f 61/84/117 67/90/123 66/89/122 60/83/116
f 62/85/118 68/91/124 67/90/123 61/84/117
f 64/86/119 70/92/125 69/93/126 63/87/120
f 65/88/121 71/94/127 70/92/125 64/86/119
f 66/89/122 72/95/128 71/94/127 65/88/121
f 67/90/123 73/96/129 72/95/128 66/89/122
f 68/91/124 74/97/130 73/96/129 67/90/123
f 70/92/125 76/98/131 75/99/132 69/93/126
f 71/94/127 77/100/133 76/98/131 70/92/125
f 72/95/128 78/101/134 77/100/133 71/94/127
f 73/96/129 79/102/135 78/101/134 72/95/128
f 74/103/130 80/104/136 79/102/135 73/96/129
f 76/105/131 82/106/137 81/107/138 75/108/132
f 77/109/133 83/110/139 82/106/137 76/105/131
f 78/111/134 84/112/140 83/110/139 77/109/133
f 79/113/135 85/114/141 84/112/140 78/111/134
f 80/115/136 86/116/142 85/114/141 79/113/135
f 82/106/137 28/44/83 27/47/86 81/107/138
f 83/110/139 29/48/87 28/44/83 82/106/137
f 84/112/140 30/50/89 29/48/87 83/110/139
f 85/114/141 31/52/91 30/50/89 84/112/140
f 86/116/142 32/54/93 31/52/91 85/114/141
