# This file uses centimeters as units for non-parametric coordinates.

mtllib M_DoorWay  2-3_RightDoor.mtl
g default
v 0.017160 3.495131 3.104799
v 0.309017 3.446187 3.104799
v 0.587785 3.304148 3.104799
v 0.809017 3.082916 3.104799
v 0.951057 2.804147 3.104799
v 1.000000 2.495130 3.104799
v 0.017160 3.495131 3.354799
v 0.309017 3.446187 3.354799
v 0.587785 3.304148 3.354799
v 0.809017 3.082916 3.354799
v 0.951057 2.804147 3.354799
v 1.000000 2.495130 3.354799
v 0.017160 2.495130 3.104799
v 0.017160 2.495130 3.354799
v 0.017160 0.284078 3.104799
v 1.000000 0.284078 3.104799
v 0.017160 0.284078 3.354799
v 1.000000 0.284078 3.354799
v 0.234073 1.705068 3.354799
v 0.067715 1.705068 3.354799
v 0.234073 1.115558 3.354799
v 0.067715 1.115558 3.354799
v 0.229542 1.689011 3.403100
v 0.072247 1.689011 3.403100
v 0.229542 1.131615 3.403100
v 0.072247 1.131615 3.403100
v 0.149596 1.286143 3.335673
v 0.149596 1.314790 3.423841
v 0.149596 1.364932 3.459605
v 0.149596 1.529852 3.499757
v 0.149596 1.557495 3.490300
v 0.149596 1.586143 3.335673
v 0.120207 1.276594 3.335673
v 0.120207 1.307065 3.429454
v 0.120207 1.357534 3.467151
v 0.120207 1.532953 3.509859
v 0.120207 1.565221 3.495913
v 0.120207 1.595692 3.335673
v 0.102043 1.251594 3.335673
v 0.102043 1.286839 3.444148
v 0.102043 1.338166 3.486906
v 0.102043 1.541072 3.536307
v 0.102043 1.585446 3.510608
v 0.102043 1.620692 3.335673
v 0.102043 1.220692 3.335673
v 0.102043 1.261840 3.462312
v 0.102043 1.314226 3.511326
v 0.102043 1.551108 3.568998
v 0.102043 1.610446 3.528771
v 0.102043 1.651594 3.335673
v 0.120207 1.195692 3.335673
v 0.120207 1.241614 3.477006
v 0.120207 1.294858 3.531081
v 0.120207 1.559226 3.595446
v 0.120207 1.630672 3.543466
v 0.120207 1.676594 3.335673
v 0.149596 1.186143 3.335673
v 0.149596 1.233889 3.482619
v 0.149596 1.287461 3.538627
v 0.149596 1.562328 3.605548
v 0.149596 1.638397 3.549079
v 0.149596 1.686143 3.335673
v 0.178985 1.195692 3.335673
v 0.178985 1.241614 3.477006
v 0.178985 1.294858 3.531081
v 0.178985 1.559226 3.595446
v 0.178985 1.630672 3.543466
v 0.178985 1.676594 3.335673
v 0.197149 1.220692 3.335673
v 0.197149 1.261840 3.462312
v 0.197149 1.314226 3.511326
v 0.197149 1.551108 3.568998
v 0.197149 1.610446 3.528771
v 0.197149 1.651594 3.335673
v 0.197149 1.251594 3.335673
v 0.197149 1.286839 3.444148
v 0.197149 1.338166 3.486906
v 0.197149 1.541072 3.536307
v 0.197149 1.585446 3.510608
v 0.197149 1.620692 3.335673
v 0.178985 1.276594 3.335673
v 0.178985 1.307065 3.429454
v 0.178985 1.357534 3.467151
v 0.178985 1.532953 3.509859
v 0.178985 1.565221 3.495913
v 0.178985 1.595692 3.335673
vt 0.211005 0.982905
vt 0.217845 0.943110
vt 0.170159 0.934834
vt 0.157300 0.972534
vt 0.124919 0.910964
vt 0.101014 0.942565
vt 0.091441 0.877487
vt 0.059841 0.901391
vt 0.066011 0.832353
vt 0.027253 0.842116
vt 0.060617 0.781625
vt 0.021591 0.782004
vt 0.305523 0.935233
vt 0.258385 0.781627
vt 0.258385 0.943138
vt 0.350547 0.912292
vt 0.386278 0.876561
vt 0.409219 0.831537
vt 0.417124 0.781627
vt 0.218007 0.781627
vt 0.059101 0.384147
vt 0.059020 0.424525
vt 0.217924 0.424519
vt 0.217840 0.384141
vt 0.417124 0.424519
vt 0.258385 0.424519
vt 0.115109 0.207815
vt 0.115109 0.035734
vt 0.066549 0.035735
vt 0.066549 0.207815
vt 0.018230 0.424911
vt 0.209842 0.654024
vt 0.182973 0.654024
vt 0.182973 0.558811
vt 0.209842 0.558811
vt 0.116508 0.222727
vt 0.065150 0.222726
vt 0.051637 0.212772
vt 0.051637 0.030777
vt 0.065150 0.020823
vt 0.116508 0.020823
vt 0.130021 0.030777
vt 0.130021 0.212772
vt 0.734557 0.212352
vt 0.774326 0.227510
vt 0.773622 0.244497
vt 0.721657 0.224311
vt 0.717759 0.188228
vt 0.702211 0.198025
vt 0.694100 0.107949
vt 0.677024 0.099987
vt 0.699904 0.093403
vt 0.685589 0.080547
vt 0.769010 0.078559
vt 0.773248 0.061120
vt 0.771896 0.254497
vt 0.713488 0.235520
vt 0.689155 0.206952
vt 0.661889 0.094958
vt 0.676549 0.070370
vt 0.772153 0.051107
vt 0.771773 0.271514
vt 0.703586 0.249358
vt 0.675677 0.220165
vt 0.643845 0.089419
vt 0.666633 0.056542
vt 0.772044 0.034080
vt 0.874577 0.386731
vt 0.801327 0.412701
vt 0.797259 0.404136
vt 0.872568 0.376069
vt 0.916883 0.343008
vt 0.905883 0.341758
vt 0.944459 0.186298
vt 0.936660 0.185480
vt 0.908837 0.131959
vt 0.906800 0.140191
vt 0.798968 0.096645
vt 0.794352 0.105135
vt 0.790161 0.390446
vt 0.867566 0.364354
vt 0.895377 0.337250
vt 0.929217 0.187133
vt 0.902812 0.148257
vt 0.787443 0.119033
vt 0.785958 0.375747
vt 0.856981 0.353478
vt 0.882258 0.329112
vt 0.914858 0.189420
vt 0.891942 0.157666
vt 0.784576 0.134050
vt 0.782460 0.366955
vt 0.846718 0.346076
vt 0.873019 0.318565
vt 0.903017 0.195352
vt 0.881542 0.164370
vt 0.782205 0.143203
vt 0.782344 0.350919
vt 0.837386 0.333035
vt 0.860317 0.306113
vt 0.886013 0.200572
vt 0.872197 0.177401
vt 0.782205 0.143203
vt 0.782102 0.159249
vt 0.743853 0.198194
vt 0.777307 0.210706
vt 0.774132 0.216378
vt 0.739494 0.204103
vt 0.735444 0.177615
vt 0.726321 0.180230
vt 0.711774 0.109795
vt 0.703577 0.110756
vt 0.711532 0.102987
vt 0.708831 0.099754
vt 0.765107 0.096561
vt 0.763850 0.090238
vn 0.165387 0.986229 0.000000
vn 0.165387 0.986229 0.000000
vn 0.317386 0.948297 0.000000
vn 0.317386 0.948297 0.000000
vn 0.587785 0.809017 0.000000
vn 0.587785 0.809017 0.000000
vn 0.809017 0.587785 0.000000
vn 0.809017 0.587785 0.000000
vn 0.951057 0.309017 0.000000
vn 0.951057 0.309017 0.000000
vn 0.987688 0.156434 0.000000
vn 0.987688 0.156434 0.000000
vn 0.000000 0.000000 -1.000000
vn 0.000000 0.000000 -1.000000
vn 0.000001 0.000000 -1.000000
vn -0.000000 0.000000 -1.000000
vn 0.000000 0.000000 -1.000000
vn 0.000000 0.000000 -1.000000
vn 0.000000 0.000000 -1.000000
vn -0.000001 0.000000 1.000000
vn -0.000000 0.000000 1.000000
vn -0.000000 0.000000 1.000000
vn 0.000000 0.000000 1.000000
vn 0.000000 0.000000 1.000000
vn 0.000000 0.000000 1.000000
vn 0.000000 0.000000 1.000000
vn 0.000000 -1.000000 0.000000
vn 0.000000 -1.000000 0.000000
vn 0.000000 -1.000000 0.000000
vn 0.000000 -1.000000 0.000000
vn -1.000000 0.000000 0.000000
vn -1.000000 0.000000 0.000000
vn -1.000000 0.000000 0.000000
vn -1.000000 0.000000 0.000000
vn 0.000000 0.000000 -1.000000
vn 0.000000 0.000000 -1.000000
vn 0.000000 0.000000 -1.000000
vn 0.000000 0.000000 -1.000000
vn -1.000000 0.000000 0.000000
vn -1.000000 0.000000 0.000000
vn -1.000000 0.000000 0.000000
vn -1.000000 0.000000 0.000000
vn 0.000000 0.000000 1.000000
vn 0.000000 0.000000 1.000000
vn 0.000000 0.000000 1.000000
vn 0.000000 0.000000 1.000000
vn 1.000000 0.000000 0.000000
vn 1.000000 0.000000 0.000000
vn 1.000000 0.000000 0.000000
vn 1.000000 0.000000 0.000000
vn 0.000000 0.000000 1.000000
vn 0.000000 0.000000 1.000000
vn 0.000000 0.000000 1.000000
vn 0.000000 0.000000 1.000000
vn 0.000000 0.000000 1.000000
vn 0.000000 0.000000 1.000000
vn 0.000000 0.000000 1.000000
vn 0.000000 0.000000 1.000000
vn 0.000000 0.000000 1.000000
vn 0.000000 0.000000 1.000000
vn 0.000000 0.000000 1.000000
vn 0.000000 0.000000 1.000000
vn 0.000000 0.000000 1.000000
vn 0.000000 0.000000 1.000000
vn 0.000000 0.000000 1.000000
vn 0.000000 0.000000 1.000000
vn 0.000000 0.948939 0.315459
vn 0.000000 0.948939 0.315459
vn 0.000000 0.948939 0.315459
vn 0.000000 0.948939 0.315459
vn 0.995628 0.000000 0.093403
vn 0.995628 0.000000 0.093403
vn 0.995628 0.000000 0.093403
vn 0.995628 0.000000 0.093403
vn 0.000000 -0.948938 0.315463
vn 0.000000 -0.948938 0.315463
vn 0.000000 -0.948938 0.315463
vn 0.000000 -0.948938 0.315463
vn -0.995628 0.000000 0.093403
vn -0.995628 0.000000 0.093403
vn -0.995628 0.000000 0.093403
vn -0.995628 0.000000 0.093403
vn 0.000000 0.847726 -0.530434
vn 0.000000 0.951057 -0.309016
vn -0.609224 0.754186 -0.245049
vn -0.634581 0.659747 -0.402543
vn -0.000000 0.324487 -0.945890
vn -0.624851 0.258712 -0.736634
vn 0.000000 0.154333 -0.988019
vn -0.639389 0.104832 -0.761703
vn 0.000000 -0.942105 -0.335319
vn -0.646625 -0.716155 -0.262676
vn -0.000000 -0.982827 -0.184532
vn -0.590721 -0.792503 -0.151618
vn -0.970125 0.230732 -0.074969
vn -0.972036 0.201357 -0.120837
vn -0.974687 0.082500 -0.207794
vn -0.980300 0.018167 -0.196680
vn -0.978092 -0.194527 -0.074126
vn -0.961943 -0.268144 -0.052574
vn -0.916263 -0.380973 0.123786
vn -0.929077 -0.329297 0.168462
vn -0.916211 -0.130960 0.378690
vn -0.912296 -0.025540 0.408735
vn -0.919048 0.361249 0.157639
vn -0.926107 0.368665 0.080070
vn -0.527832 -0.807779 0.262464
vn -0.557982 -0.739212 0.377123
vn -0.535512 -0.297290 0.790472
vn -0.536947 -0.029798 0.843090
vn -0.545865 0.763366 0.345405
vn -0.538770 0.822665 0.181521
vn -0.000000 -0.951057 0.309017
vn -0.000000 -0.891573 0.452878
vn -0.000000 -0.360135 0.932900
vn -0.000001 -0.026155 0.999658
vn -0.000001 0.908754 0.417331
vn 0.000000 0.976154 0.217081
vn 0.527832 -0.807779 0.262463
vn 0.557982 -0.739212 0.377123
vn 0.535512 -0.297290 0.790472
vn 0.536946 -0.029798 0.843091
vn 0.545864 0.763366 0.345405
vn 0.538770 0.822665 0.181521
vn 0.916262 -0.380973 0.123786
vn 0.929077 -0.329298 0.168463
vn 0.916211 -0.130961 0.378691
vn 0.912296 -0.025540 0.408735
vn 0.919048 0.361249 0.157639
vn 0.926107 0.368665 0.080070
vn 0.970125 0.230732 -0.074969
vn 0.972036 0.201357 -0.120836
vn 0.974688 0.082499 -0.207793
vn 0.980300 0.018167 -0.196679
vn 0.978093 -0.194526 -0.074126
vn 0.961944 -0.268143 -0.052574
vn 0.609223 0.754187 -0.245050
vn 0.634581 0.659747 -0.402543
vn 0.624850 0.258711 -0.736634
vn 0.639389 0.104832 -0.761703
vn 0.646626 -0.716154 -0.262676
vn 0.590721 -0.792503 -0.151618
s 1
g polySurface1
usemtl texturedFacets2
f 1/1/1 7/2/2 8/3/3 2/4/4
f 2/4/4 8/3/3 9/5/5 3/6/6
f 3/6/6 9/5/5 10/7/7 4/8/8
f 4/8/8 10/7/7 11/9/9 5/10/10
f 5/10/10 11/9/9 12/11/11 6/12/12
s 2
f 2/13/13 13/14/14 1/15/15
f 3/16/16 13/14/14 2/13/13
f 4/17/17 13/14/14 3/16/16
f 5/18/18 13/14/14 4/17/17
f 6/19/19 13/14/14 5/18/18
s 3
f 7/2/20 14/20/21 8/3/22
f 8/3/22 14/20/21 9/5/23
f 9/5/23 14/20/21 10/7/24
f 10/7/24 14/20/21 11/9/25
f 11/9/25 14/20/21 12/11/26
s off
f 16/21/27 18/22/28 17/23/29 15/24/30
f 7/2/31 1/15/32 13/14/33 14/20/34
f 6/19/35 16/25/36 15/26/37 13/14/38
f 13/14/39 15/26/40 17/23/41 14/20/42
f 24/27/43 26/28/44 25/29/45 23/30/46
f 12/11/47 18/22/48 16/31/49 6/12/50
f 14/20/51 20/32/52 19/33/53 12/11/54
f 12/11/55 19/33/56 21/34/57 18/22/58
f 18/22/59 21/34/60 22/35/61 17/23/62
f 17/23/63 22/35/64 20/32/65 14/20/66
f 20/36/67 24/27/68 23/30/69 19/37/70
f 19/38/71 23/30/72 25/29/73 21/39/74
f 21/40/75 25/29/76 26/28/77 22/41/78
f 22/42/79 26/28/80 24/27/81 20/43/82
s 4
usemtl texturedFacets1
f 28/44/83 27/45/84 33/46/85 34/47/86
f 29/48/87 28/44/83 34/47/86 35/49/88
f 30/50/89 29/48/87 35/49/88 36/51/90
f 31/52/91 30/50/89 36/51/90 37/53/92
f 32/54/93 31/52/91 37/53/92 38/55/94
f 34/47/86 33/46/85 39/56/95 40/57/96
f 35/49/88 34/47/86 40/57/96 41/58/97
f 36/51/90 35/49/88 41/58/97 42/59/98
f 37/53/92 36/51/90 42/59/98 43/60/99
f 38/55/94 37/53/92 43/60/99 44/61/100
f 40/57/96 39/56/95 45/62/101 46/63/102
f 41/58/97 40/57/96 46/63/102 47/64/103
f 42/59/98 41/58/97 47/64/103 48/65/104
f 43/60/99 42/59/98 48/65/104 49/66/105
f 44/61/100 43/60/99 49/66/105 50/67/106
f 46/68/102 45/69/101 51/70/107 52/71/108
f 47/72/103 46/68/102 52/71/108 53/73/109
f 48/74/104 47/72/103 53/73/109 54/75/110
f 49/76/105 48/74/104 54/75/110 55/77/111
f 50/78/106 49/76/105 55/77/111 56/79/112
f 52/71/108 51/70/107 57/80/113 58/81/114
f 53/73/109 52/71/108 58/81/114 59/82/115
f 54/75/110 53/73/109 59/82/115 60/83/116
f 55/77/111 54/75/110 60/83/116 61/84/117
f 56/79/112 55/77/111 61/84/117 62/85/118
f 58/81/114 57/80/113 63/86/119 64/87/120
f 59/82/115 58/81/114 64/87/120 65/88/121
f 60/83/116 59/82/115 65/88/121 66/89/122
f 61/84/117 60/83/116 66/89/122 67/90/123
f 62/85/118 61/84/117 67/90/123 68/91/124
f 64/87/120 63/86/119 69/92/125 70/93/126
f 65/88/121 64/87/120 70/93/126 71/94/127
f 66/89/122 65/88/121 71/94/127 72/95/128
f 67/90/123 66/89/122 72/95/128 73/96/129
f 68/91/124 67/90/123 73/96/129 74/97/130
f 70/93/126 69/92/125 75/98/131 76/99/132
f 71/94/127 70/93/126 76/99/132 77/100/133
f 72/95/128 71/94/127 77/100/133 78/101/134
f 73/96/129 72/95/128 78/101/134 79/102/135
f 74/103/130 73/96/129 79/102/135 80/104/136
f 76/105/132 75/106/131 81/107/137 82/108/138
f 77/109/133 76/105/132 82/108/138 83/110/139
f 78/111/134 77/109/133 83/110/139 84/112/140
f 79/113/135 78/111/134 84/112/140 85/114/141
f 80/115/136 79/113/135 85/114/141 86/116/142
f 82/108/138 81/107/137 27/45/84 28/44/83
f 83/110/139 82/108/138 28/44/83 29/48/87
f 84/112/140 83/110/139 29/48/87 30/50/89
f 85/114/141 84/112/140 30/50/89 31/52/91
f 86/116/142 85/114/141 31/52/91 32/54/93
