# This file uses centimeters as units for non-parametric coordinates.

mtllib plane.mtl
g default
v -0.500000 0.000000 0.500000
v 0.000000 0.000000 0.500000
v 0.500000 0.000000 0.500000
v -0.500000 0.000000 0.000000
v 0.000000 0.000000 0.000000
v 0.500000 0.000000 0.000000
v -0.500000 0.000000 -0.500000
v 0.000000 0.000000 -0.500000
v 0.500000 0.000000 -0.500000
vt 0.000000 0.004066
vt 0.500000 0.004066
vt 0.500000 0.500000
vt 0.000000 0.500000
vt 1.000000 0.004066
vt 1.000000 0.500000
vt 0.500000 0.995934
vt 0.000000 0.995934
vt 1.000000 0.995934
vn 0.000000 1.000000 0.000000
vn 0.000000 1.000000 0.000000
vn 0.000000 1.000000 0.000000
vn 0.000000 1.000000 0.000000
vn 0.000000 1.000000 0.000000
vn 0.000000 1.000000 0.000000
vn 0.000000 1.000000 0.000000
vn 0.000000 1.000000 0.000000
vn 0.000000 1.000000 0.000000
vn 0.000000 1.000000 0.000000
vn 0.000000 1.000000 0.000000
vn 0.000000 1.000000 0.000000
vn 0.000000 1.000000 0.000000
vn 0.000000 1.000000 0.000000
vn 0.000000 1.000000 0.000000
vn 0.000000 1.000000 0.000000
s off
g pPlane1
usemtl initialShadingGroup1
f 1/1/1 2/2/2 5/3/3 4/4/4
f 2/2/5 3/5/6 6/6/7 5/3/8
f 4/4/9 5/3/10 8/7/11 7/8/12
f 5/3/13 6/6/14 9/9/15 8/7/16
