# This file uses centimeters as units for non-parametric coordinates.

v -50.000000 -49.796238 25.000000
v 0.000000 -49.796238 25.000000
v -50.000000 -33.197495 25.000000
v 0.000000 -33.197495 25.000000
v -50.000000 -33.197495 -25.000000
v 0.000000 -33.197495 -25.000000
v -50.000000 -49.796238 -25.000000
v 0.000000 -49.796238 -25.000000
v -35.732475 -33.197495 10.732473
v -14.267525 -33.197495 10.732473
v -14.267525 -33.197495 -10.732475
v -35.732475 -33.197495 -10.732475
v -35.732475 33.197491 10.732473
v -14.267525 33.197491 10.732473
v -14.267525 33.197491 -10.732475
v -35.732475 33.197491 -10.732475
v -50.000000 33.197491 25.000000
v 0.000000 33.197491 25.000000
v 0.000000 33.197491 -25.000000
v -50.000000 33.197491 -25.000000
v -50.000000 49.796238 25.000000
v 0.000000 49.796238 25.000000
v 0.000000 49.796238 -25.000000
v -50.000000 49.796238 -25.000000
v -31.280502 19.337322 6.280502
v -31.280502 19.337322 -6.280502
v -18.719498 19.337322 -6.280502
v -18.719498 19.337322 6.280502
v -31.280502 -18.929806 6.280502
v -31.280502 -18.929806 -6.280502
v -18.719498 -18.929806 -6.280502
v -18.719498 -18.929806 6.280502
v -32.868034 -18.929806 7.868036
v -32.868034 -18.929806 -7.868034
v -32.868034 19.337322 7.868036
v -32.868034 19.337322 -7.868034
v -17.131966 -18.929806 -7.868034
v -17.131966 19.337322 -7.868034
v -17.131966 -18.929806 7.868036
v -17.131966 19.337322 7.868036
v -39.034058 -9.511650 14.034056
v -39.034058 -9.511650 -14.034058
v -10.965942 -9.511650 -14.034058
v -10.965942 -9.511650 14.034056
v -31.280502 26.267406 6.280502
v -31.280502 26.267406 -6.280502
v -18.719498 26.267406 -6.280502
v -18.719498 26.267406 6.280502
v -31.280502 -26.063648 6.280502
v -31.280502 -26.063648 -6.280502
v -18.719498 -26.063648 -6.280502
v -18.719498 -26.063648 6.280502
v 50.000000 -49.796238 25.000000
v 50.000000 -33.197495 25.000000
v 50.000000 -33.197495 -25.000000
v 50.000000 -49.796238 -25.000000
v 14.267525 -33.197495 10.732473
v 35.732475 -33.197495 10.732473
v 35.732475 -33.197495 -10.732475
v 14.267525 -33.197495 -10.732475
v 14.267525 33.197491 10.732473
v 35.732475 33.197491 10.732473
v 35.732475 33.197491 -10.732475
v 14.267525 33.197491 -10.732475
v 50.000000 33.197491 25.000000
v 50.000000 33.197491 -25.000000
v 50.000000 49.796238 25.000000
v 50.000000 49.796238 -25.000000
v 18.719498 19.337322 6.280502
v 18.719498 19.337322 -6.280502
v 31.280502 19.337322 -6.280502
v 31.280502 19.337322 6.280502
v 18.719498 -18.929806 6.280502
v 18.719498 -18.929806 -6.280502
v 31.280502 -18.929806 -6.280502
v 31.280502 -18.929806 6.280502
v 17.131966 -18.929806 7.868036
v 17.131966 -18.929806 -7.868034
v 17.131966 19.337322 7.868036
v 17.131966 19.337322 -7.868034
v 32.868034 -18.929806 -7.868034
v 32.868034 19.337322 -7.868034
v 32.868034 -18.929806 7.868036
v 32.868034 19.337322 7.868036
v 10.965942 -9.511650 14.034056
v 10.965942 -9.511650 -14.034058
v 39.034058 -9.511650 -14.034058
v 39.034058 -9.511650 14.034056
v 18.719498 26.267406 6.280502
v 18.719498 26.267406 -6.280502
v 31.280502 26.267406 -6.280502
v 31.280502 26.267406 6.280502
v 18.719498 -26.063648 6.280502
v 18.719498 -26.063648 -6.280502
v 31.280502 -26.063648 -6.280502
v 31.280502 -26.063648 6.280502
vt 0.001992 0.429773
vt 0.001992 0.224910
vt 0.070001 0.224910
vt 0.070001 0.429773
vt 0.001992 0.020047
vt 0.070001 0.020047
vt 0.076247 0.429773
vt 0.076247 0.224910
vt 0.281110 0.224910
vt 0.281110 0.429773
vt 0.076247 0.020047
vt 0.281110 0.020047
vt 0.288683 0.429773
vt 0.288683 0.224910
vt 0.356692 0.224910
vt 0.356692 0.429773
vt 0.288683 0.020047
vt 0.356692 0.020047
vt 0.364692 0.429773
vt 0.364692 0.224910
vt 0.569555 0.224910
vt 0.569555 0.429773
vt 0.364692 0.020047
vt 0.569555 0.020047
vt 0.741370 0.666865
vt 0.741370 0.462002
vt 0.809380 0.462002
vt 0.809380 0.666865
vt 0.577128 0.429773
vt 0.577128 0.224910
vt 0.635586 0.283368
vt 0.635586 0.371315
vt 0.781991 0.224910
vt 0.723533 0.283368
vt 0.653827 0.301609
vt 0.653827 0.353075
vt 0.781991 0.429773
vt 0.723533 0.371315
vt 0.635586 0.166452
vt 0.723533 0.166452
vt 0.705292 0.301609
vt 0.705292 0.353075
vt 0.577128 0.020047
vt 0.635586 0.078505
vt 0.653827 0.148212
vt 0.705292 0.148212
vt 0.781991 0.020047
vt 0.723533 0.078505
vt 0.653827 0.096746
vt 0.705292 0.096746
vt 0.935969 0.371315
vt 0.935969 0.283368
vt 0.994427 0.224910
vt 0.994427 0.429773
vt 0.917728 0.353075
vt 0.917728 0.301609
vt 0.848021 0.283368
vt 0.789564 0.224910
vt 0.848021 0.371315
vt 0.789564 0.429773
vt 0.866262 0.301609
vt 0.866262 0.353075
vt 0.848021 0.166452
vt 0.935969 0.166452
vt 0.866262 0.148212
vt 0.917728 0.148212
vt 0.935969 0.078505
vt 0.994427 0.020047
vt 0.848021 0.078505
vt 0.789564 0.020047
vt 0.917728 0.096746
vt 0.866262 0.096746
vt 0.889660 0.871728
vt 0.889660 0.666865
vt 0.957669 0.666865
vt 0.957669 0.871728
vt 0.889660 0.462002
vt 0.957669 0.462002
vt 0.883525 0.666865
vt 0.883525 0.871728
vt 0.815515 0.871728
vt 0.815515 0.666865
vt 0.883525 0.462002
vt 0.815515 0.462002
vt 0.667226 0.666865
vt 0.667226 0.462002
vt 0.735235 0.462002
vt 0.735235 0.666865
vt 0.320239 0.667755
vt 0.320239 0.616289
vt 0.348634 0.616289
vt 0.348634 0.667755
vt 0.173481 0.666817
vt 0.173481 0.718283
vt 0.145086 0.718283
vt 0.145086 0.666817
vt 0.733362 0.900965
vt 0.733362 0.849499
vt 0.761756 0.849499
vt 0.761756 0.900965
vt 0.747751 0.956422
vt 0.747751 0.904956
vt 0.776145 0.904956
vt 0.776145 0.956422
vt 0.085399 0.579592
vt 0.085399 0.631057
vt 0.078895 0.637562
vt 0.078895 0.573087
vt 0.136865 0.631057
vt 0.143370 0.637562
vt 0.053631 0.662826
vt 0.053631 0.547823
vt 0.136865 0.579592
vt 0.143370 0.573087
vt 0.168633 0.662826
vt 0.168633 0.547823
vt 0.305703 0.554328
vt 0.305703 0.605794
vt 0.299199 0.612298
vt 0.299199 0.547823
vt 0.357169 0.605794
vt 0.363674 0.612298
vt 0.357169 0.554328
vt 0.363674 0.547823
vt 0.201913 0.746390
vt 0.316915 0.746390
vt 0.291651 0.864592
vt 0.227177 0.864592
vt 0.559191 0.864592
vt 0.444188 0.864592
vt 0.469452 0.746390
vt 0.533927 0.746390
vt 0.080775 0.746390
vt 0.195778 0.746390
vt 0.170514 0.864592
vt 0.106039 0.864592
vt 0.008043 0.868583
vt 0.123045 0.868583
vt 0.097781 0.986785
vt 0.033307 0.986785
vt 0.214980 0.718283
vt 0.214980 0.666817
vt 0.244210 0.666817
vt 0.244210 0.718283
vt 0.138951 0.666817
vt 0.138951 0.718283
vt 0.109722 0.718283
vt 0.109722 0.666817
vt 0.712386 0.956422
vt 0.712386 0.904957
vt 0.741615 0.904957
vt 0.741615 0.956422
vt 0.284875 0.718283
vt 0.284875 0.666817
vt 0.314104 0.666817
vt 0.314104 0.718283
vt 0.593081 0.666865
vt 0.593081 0.462002
vt 0.661090 0.462002
vt 0.661090 0.666865
vt 0.518936 0.666865
vt 0.518936 0.462002
vt 0.586946 0.462002
vt 0.586946 0.666865
vt 0.250345 0.718283
vt 0.250345 0.666817
vt 0.278739 0.666817
vt 0.278739 0.718283
vt 0.689645 0.849499
vt 0.689645 0.900965
vt 0.661251 0.900965
vt 0.661251 0.849499
vt 0.677857 0.956422
vt 0.677857 0.904957
vt 0.706251 0.904957
vt 0.706251 0.956422
vt 0.643327 0.969431
vt 0.643327 0.917965
vt 0.671721 0.917965
vt 0.671721 0.969431
vt 0.208183 0.579592
vt 0.208183 0.631057
vt 0.201679 0.637562
vt 0.201679 0.573087
vt 0.259649 0.631057
vt 0.266154 0.637562
vt 0.176415 0.662826
vt 0.176415 0.547823
vt 0.259649 0.579592
vt 0.266154 0.573087
vt 0.291417 0.662826
vt 0.291417 0.547823
vt 0.595644 0.856004
vt 0.595644 0.907469
vt 0.589139 0.913974
vt 0.589139 0.849499
vt 0.647110 0.907469
vt 0.653614 0.913974
vt 0.647110 0.856004
vt 0.653614 0.849499
vt 0.131022 0.868583
vt 0.246024 0.868583
vt 0.220760 0.986785
vt 0.156286 0.986785
vt 0.438053 0.864592
vt 0.323051 0.864592
vt 0.348314 0.746390
vt 0.412789 0.746390
vt 0.253806 0.868583
vt 0.368808 0.868583
vt 0.343544 0.986785
vt 0.279069 0.986785
vt 0.376590 0.868583
vt 0.491592 0.868583
vt 0.466328 0.986785
vt 0.401854 0.986785
vt 0.179616 0.718283
vt 0.179616 0.666817
vt 0.208845 0.666817
vt 0.208845 0.718283
vt 0.725561 0.849499
vt 0.725561 0.900965
vt 0.696332 0.900965
vt 0.696332 0.849499
vt 0.607962 0.969431
vt 0.607962 0.917965
vt 0.637192 0.917965
vt 0.637192 0.969431
vt 0.572598 0.969431
vt 0.572598 0.917965
vt 0.601827 0.917965
vt 0.601827 0.969431
vn -0.300505 -0.905204 0.300505
vn 0.000000 -0.949069 0.315067
vn 0.000000 0.523415 0.852078
vn -0.648566 0.398401 0.648566
vn -0.300505 0.905204 0.300505
vn 0.000000 0.949069 0.315067
vn 0.000000 0.949069 -0.315067
vn -0.300505 0.905204 -0.300505
vn -0.648566 0.398401 -0.648566
vn 0.000000 0.523415 -0.852078
vn 0.000000 -0.949069 -0.315067
vn -0.300505 -0.905204 -0.300505
vn 0.051119 0.997383 0.051119
vn -0.051119 0.997383 0.051119
vn 0.051119 0.997383 -0.051119
vn -0.051119 0.997383 -0.051119
vn 0.615787 0.491542 0.615787
vn -0.615787 0.491542 0.615787
vn 0.615787 0.491542 -0.615787
vn -0.615787 0.491542 -0.615787
vn -0.049299 -0.997567 0.049299
vn 0.049299 -0.997567 0.049299
vn 0.000000 -0.523415 0.852078
vn -0.648566 -0.398401 0.648566
vn 0.049299 -0.997567 -0.049299
vn 0.000000 -0.523415 -0.852078
vn -0.049299 -0.997567 -0.049299
vn -0.648566 -0.398401 -0.648566
vn -0.620267 0.480143 -0.620267
vn -0.620267 0.480144 0.620267
vn -0.611163 -0.502950 0.611164
vn -0.611163 -0.502950 -0.611164
vn 0.620267 0.480144 -0.620267
vn 0.611163 -0.502950 -0.611164
vn 0.620267 0.480144 0.620267
vn 0.611163 -0.502950 0.611164
vn -0.503952 -0.701473 -0.503952
vn -0.503952 -0.701473 0.503952
vn -0.706151 0.051966 0.706151
vn -0.706151 0.051966 -0.706151
vn 0.503952 -0.701473 -0.503952
vn 0.706151 0.051966 -0.706151
vn 0.503952 -0.701473 0.503952
vn 0.706151 0.051966 0.706151
vn -0.624333 -0.469487 -0.624332
vn -0.624333 -0.469487 0.624332
vn -0.672584 0.308645 -0.672584
vn -0.672584 0.308645 0.672584
vn 0.624333 -0.469487 -0.624332
vn 0.672584 0.308645 -0.672584
vn 0.624332 -0.469487 0.624332
vn 0.672584 0.308645 0.672584
vn 0.300505 -0.905204 0.300505
vn 0.648566 0.398401 0.648566
vn 0.300505 0.905204 0.300505
vn 0.300505 0.905204 -0.300505
vn 0.648566 0.398401 -0.648566
vn 0.300505 -0.905204 -0.300505
vn 0.051119 0.997383 0.051119
vn -0.051119 0.997383 0.051119
vn 0.051119 0.997383 -0.051119
vn -0.051119 0.997383 -0.051119
vn 0.615787 0.491542 0.615787
vn -0.615787 0.491542 0.615787
vn 0.615787 0.491542 -0.615787
vn -0.615787 0.491542 -0.615787
vn -0.049299 -0.997567 0.049299
vn 0.049299 -0.997567 0.049299
vn 0.648566 -0.398401 0.648566
vn 0.049299 -0.997567 -0.049299
vn 0.648566 -0.398401 -0.648566
vn -0.049299 -0.997567 -0.049299
vn -0.620267 0.480144 -0.620267
vn -0.620267 0.480144 0.620267
vn -0.611163 -0.502950 0.611164
vn -0.611163 -0.502950 -0.611164
vn 0.620267 0.480143 -0.620267
vn 0.611163 -0.502950 -0.611164
vn 0.620267 0.480144 0.620267
vn 0.611163 -0.502950 0.611164
vn -0.503952 -0.701473 -0.503952
vn -0.503952 -0.701473 0.503952
vn -0.706151 0.051966 0.706151
vn -0.706151 0.051966 -0.706151
vn 0.503952 -0.701473 -0.503952
vn 0.706151 0.051966 -0.706151
vn 0.503952 -0.701473 0.503952
vn 0.706151 0.051966 0.706151
vn -0.624333 -0.469487 -0.624332
vn -0.624332 -0.469487 0.624332
vn -0.672584 0.308645 -0.672584
vn -0.672584 0.308645 0.672584
vn 0.624333 -0.469487 -0.624332
vn 0.672584 0.308645 -0.672584
vn 0.624333 -0.469487 0.624332
vn 0.672584 0.308645 0.672584
s 1
f 1/1/1 2/2/2 4/3/3 3/4/4
f 21/7/5 22/8/6 23/9/7 24/10/8
f 5/13/9 6/14/10 8/15/11 7/16/12
f 7/19/12 8/20/11 2/21/2 1/22/1
f 7/25/12 1/26/1 3/27/4 5/28/9
f 3/29/4 4/30/3 10/31/13 9/32/14
f 4/30/3 6/33/10 11/34/15 10/31/13
f 6/33/10 5/37/9 12/38/16 11/34/15
f 5/37/9 3/29/4 9/32/14 12/38/16
f 9/32/14 10/31/13 52/35/17 49/36/18
f 10/31/13 11/34/15 51/41/19 52/35/17
f 11/34/15 12/38/16 50/42/20 51/41/19
f 12/38/16 9/32/14 49/36/18 50/42/20
f 13/51/21 14/52/22 18/53/23 17/54/24
f 14/52/22 15/57/25 19/58/26 18/53/23
f 15/57/25 16/59/27 20/60/28 19/58/26
f 16/59/27 13/51/21 17/54/24 20/60/28
f 17/73/24 18/74/23 22/75/6 21/76/5
f 19/79/26 20/80/28 24/81/8 23/82/7
f 20/85/28 17/86/24 21/87/5 24/88/8
f 26/89/29 25/90/30 45/91/31 46/92/32
f 27/93/33 26/94/29 46/95/32 47/96/34
f 28/97/35 27/98/33 47/99/34 48/100/36
f 25/101/30 28/102/35 48/103/36 45/104/31
f 34/108/37 33/107/38 41/111/39 42/112/40
f 37/114/41 34/108/37 42/112/40 43/116/42
f 39/110/43 37/114/41 43/116/42 44/115/44
f 33/107/38 39/110/43 44/115/44 41/111/39
f 30/105/45 29/106/46 33/107/38 34/108/37
f 25/117/30 26/118/29 36/119/47 35/120/48
f 31/113/49 30/105/45 34/108/37 37/114/41
f 26/118/29 27/121/33 38/122/50 36/119/47
f 32/109/51 31/113/49 37/114/41 39/110/43
f 27/121/33 28/123/35 40/124/52 38/122/50
f 29/106/46 32/109/51 39/110/43 33/107/38
f 28/123/35 25/117/30 35/120/48 40/124/52
f 42/125/40 41/126/39 35/127/48 36/128/47
f 43/129/42 42/130/40 36/131/47 38/132/50
f 44/133/44 43/134/42 38/135/50 40/136/52
f 41/137/39 44/138/44 40/139/52 35/140/48
f 46/62/32 45/55/31 13/51/21 16/59/27
f 47/61/34 46/62/32 16/59/27 15/57/25
f 48/56/36 47/61/34 15/57/25 14/52/22
f 45/55/31 48/56/36 14/52/22 13/51/21
f 50/141/20 49/142/18 29/143/46 30/144/45
f 51/145/19 50/146/20 30/147/45 31/148/49
f 52/149/17 51/150/19 31/151/49 32/152/51
f 49/153/18 52/154/17 32/155/51 29/156/46
f 2/2/2 53/5/53 54/6/54 4/3/3
f 22/8/6 67/11/55 68/12/56 23/9/7
f 6/14/10 55/17/57 56/18/58 8/15/11
f 8/20/11 56/23/58 53/24/53 2/21/2
f 53/157/53 56/158/58 55/159/57 54/160/54
f 4/30/3 54/43/54 58/44/59 57/39/60
f 54/43/54 55/47/57 59/48/61 58/44/59
f 55/47/57 6/33/10 60/40/62 59/48/61
f 6/33/10 4/30/3 57/39/60 60/40/62
f 57/39/60 58/44/59 96/49/63 93/45/64
f 58/44/59 59/48/61 95/50/65 96/49/63
f 59/48/61 60/40/62 94/46/66 95/50/65
f 60/40/62 57/39/60 93/45/64 94/46/66
f 61/64/67 62/67/68 65/68/69 18/53/23
f 62/67/68 63/69/70 66/70/71 65/68/69
f 63/69/70 64/63/72 19/58/26 66/70/71
f 64/63/72 61/64/67 18/53/23 19/58/26
f 18/74/23 65/77/69 67/78/55 22/75/6
f 65/161/69 66/162/71 68/163/56 67/164/55
f 66/83/71 19/79/26 23/82/7 68/84/56
f 70/165/73 69/166/74 89/167/75 90/168/76
f 71/169/77 70/170/73 90/171/76 91/172/78
f 72/173/79 71/174/77 91/175/78 92/176/80
f 69/177/74 72/178/79 92/179/80 89/180/75
f 78/184/81 77/183/82 85/187/83 86/188/84
f 81/190/85 78/184/81 86/188/84 87/192/86
f 83/186/87 81/190/85 87/192/86 88/191/88
f 77/183/82 83/186/87 88/191/88 85/187/83
f 74/181/89 73/182/90 77/183/82 78/184/81
f 69/193/74 70/194/73 80/195/91 79/196/92
f 75/189/93 74/181/89 78/184/81 81/190/85
f 70/194/73 71/197/77 82/198/94 80/195/91
f 76/185/95 75/189/93 81/190/85 83/186/87
f 71/197/77 72/199/79 84/200/96 82/198/94
f 73/182/90 76/185/95 83/186/87 77/183/82
f 72/199/79 69/193/74 79/196/92 84/200/96
f 86/201/84 85/202/83 79/203/92 80/204/91
f 87/205/86 86/206/84 80/207/91 82/208/94
f 88/209/88 87/210/86 82/211/94 84/212/96
f 85/213/83 88/214/88 84/215/96 79/216/92
f 90/65/76 89/66/75 61/64/67 64/63/72
f 91/72/78 90/65/76 64/63/72 63/69/70
f 92/71/80 91/72/78 63/69/70 62/67/68
f 89/66/75 92/71/80 62/67/68 61/64/67
f 94/217/66 93/218/64 73/219/90 74/220/89
f 95/221/65 94/222/66 74/223/89 75/224/93
f 96/225/63 95/226/65 75/227/93 76/228/95
f 93/229/64 96/230/63 76/231/95 73/232/90
