# This file uses centimeters as units for non-parametric coordinates.

v -400.000000 -300.000000 25.000000
v 400.000000 -300.000000 25.000000
v -400.000000 300.000000 25.000000
v 400.000000 300.000000 25.000000
v -400.000000 300.000000 -25.000000
v 400.000000 300.000000 -25.000000
v -400.000000 -300.000000 -25.000000
v 400.000000 -300.000000 -25.000000
v 400.000000 300.000000 -16.666668
vt 0.498771 0.993525
vt 0.498771 0.619447
vt 0.529777 0.619447
vt 0.529778 0.993525
vt 0.500000 0.493525
vt 0.534603 0.119447
vt 0.998771 0.524976
vt 0.500000 0.503916
vt 0.998771 0.583692
vt 0.500000 0.524976
vt 0.498771 0.493525
vt 0.500000 0.583692
vt -0.000000 0.119447
vt 0.000000 0.493525
vt 0.498771 0.493525
vt 0.498771 0.119447
vt 0.498771 0.119447
vt 0.524212 0.493525
vt 0.498771 0.619447
vt 0.998771 0.619447
vt -0.000000 0.619447
vt 0.500000 0.619447
vt 0.998771 0.493525
vt 0.498771 0.993525
vt 0.000000 0.993525
vt 0.534603 0.493525
vn -1.000000 0.000000 0.000000
vn -1.000000 0.000000 0.000000
vn -1.000000 0.000000 0.000000
vn -1.000000 0.000000 0.000000
vn 0.000000 0.000000 -1.000000
vn 0.000000 0.000000 -1.000000
vn 0.000000 0.000000 -1.000000
vn 0.000000 0.000000 -1.000000
vn 0.000000 -1.000000 0.000000
vn 0.000000 -1.000000 0.000000
vn 0.000000 -1.000000 0.000000
vn 0.000000 -1.000000 0.000000
vn 0.000000 0.000000 1.000000
vn 0.000000 0.000000 1.000000
vn 0.000000 0.000000 1.000000
vn 0.000000 0.000000 1.000000
vn 1.000000 0.000000 0.000000
vn 1.000000 0.000000 0.000000
vn 1.000000 0.000000 0.000000
vn 1.000000 0.000000 0.000000
vn 1.000000 0.000000 0.000000
vn 0.000000 1.000000 0.000000
vn 0.000000 1.000000 0.000000
vn 0.000000 1.000000 0.000000
vn 0.000000 1.000000 0.000000
vn 0.000000 1.000000 0.000000
s off
f 5/24/1 7/19/2 1/3/3 3/4/4
f 6/25/5 8/21/6 7/2/7 5/1/8
f 1/9/9 7/20/10 8/22/11 2/12/12
f 2/13/13 4/14/14 3/15/15 1/16/16
f 2/17/17 8/6/18 6/26/19 9/18/20 4/11/21
f 4/10/22 9/8/23 6/5/24 5/23/25 3/7/26
